<svg width="23" height="23" viewBox="0 0 23 23" fill="none" xmlns="http://www.w3.org/2000/svg">
<g clip-path="url(#clip0_22_4792)">
<path d="M11.0879 13.436C7.0827 13.7981 4.03131 17.1824 4.08449 21.2035V21.4074C4.08449 22.186 4.71563 22.8171 5.49419 22.8171C6.27274 22.8171 6.90389 22.186 6.90389 21.4074V21.1471C6.86151 18.6781 8.68355 16.5727 11.133 16.2602C13.7186 16.0038 16.0225 17.892 16.2789 20.4776C16.2941 20.6304 16.3017 20.7839 16.3019 20.9375V21.4074C16.3019 22.186 16.933 22.8171 17.7116 22.8171C18.4901 22.8171 19.1213 22.186 19.1213 21.4074V20.9375C19.1167 16.7805 15.7431 13.4144 11.5861 13.4189C11.4199 13.4192 11.2537 13.4249 11.0879 13.436Z" fill="#4E3434"/>
<path d="M11.6029 11.5393C14.7171 11.5393 17.2417 9.01472 17.2417 5.90052C17.2417 2.78632 14.7171 0.261719 11.6029 0.261719C8.48871 0.261719 5.96411 2.78632 5.96411 5.90052C5.9672 9.01345 8.48999 11.5362 11.6029 11.5393ZM11.6029 3.08112C13.16 3.08112 14.4223 4.34342 14.4223 5.90052C14.4223 7.45762 13.16 8.71992 11.6029 8.71992C10.0458 8.71992 8.78351 7.45762 8.78351 5.90052C8.78351 4.34342 10.0458 3.08112 11.6029 3.08112Z" fill="#4E3434"/>
</g>
<defs>
<clipPath id="clip0_22_4792">
<rect width="22.5552" height="22.5552" fill="white" transform="translate(0.324951 0.261719)"/>
</clipPath>
</defs>
</svg>
