<svg width="211" height="63" viewBox="0 0 211 63" fill="none" xmlns="http://www.w3.org/2000/svg">
<path d="M194.063 0.000202578H16.8006C16.1544 0.000202578 15.516 0.000202578 14.8716 0.00331916C14.3322 0.00643574 13.797 0.0154894 13.2524 0.0231094C12.0692 0.0354227 10.8888 0.127478 9.7214 0.298475C8.55567 0.473194 7.42646 0.80259 6.37196 1.27552C5.31875 1.75246 4.35639 2.37218 3.51982 3.11222C2.67885 3.85017 1.97784 4.70315 1.44374 5.63834C0.908161 6.57168 0.536792 7.57184 0.342454 8.60427C0.146269 9.6354 0.0407005 10.6784 0.0266951 11.724C0.0103432 12.2017 0.00861642 12.6811 0 13.1589V49.1776C0.00861642 49.6615 0.0103432 50.1302 0.0266951 50.6142C0.0407048 51.6597 0.146274 52.7027 0.342454 53.7338C0.536255 54.7668 0.907646 55.7675 1.44374 56.7012C1.97759 57.6334 2.6787 58.4829 3.51982 59.2168C4.35322 59.9601 5.3162 60.5802 6.37196 61.0535C7.42645 61.5277 8.55554 61.8591 9.7214 62.0365C10.889 62.2061 12.0693 62.2982 13.2524 62.312C13.797 62.3226 14.3322 62.3287 14.8716 62.3287C15.516 62.3318 16.1545 62.3318 16.8006 62.3318H194.063C194.696 62.3318 195.34 62.3318 195.973 62.3287C196.51 62.3287 197.061 62.3226 197.597 62.312C198.778 62.2989 199.956 62.2068 201.122 62.0365C202.291 61.8578 203.424 61.5266 204.484 61.0535C205.539 60.58 206.501 59.9598 207.333 59.2168C208.172 58.48 208.875 57.6311 209.415 56.7012C209.948 55.7669 210.315 54.7662 210.506 53.7338C210.703 52.7025 210.812 51.6598 210.833 50.6142C210.84 50.1302 210.84 49.6615 210.84 49.1776C210.854 48.6115 210.854 48.0485 210.854 47.4732V14.8603C210.854 14.2896 210.854 13.7235 210.84 13.1589C210.84 12.6811 210.84 12.2017 210.833 11.7239C210.812 10.6783 210.703 9.63548 210.506 8.60421C210.315 7.57237 209.947 6.57229 209.415 5.63828C208.328 3.76378 206.603 2.23795 204.484 1.27538C203.424 0.803606 202.291 0.474297 201.122 0.298335C199.957 0.126584 198.778 0.034497 197.597 0.0228913C197.061 0.0152868 196.51 0.00615524 195.973 0.00311658C195.34 0 194.696 0 194.063 0V0.000202578Z" fill="#A6A6A6"/>
<path d="M14.8799 60.9679C14.343 60.9679 13.8191 60.9618 13.2865 60.9512C12.1831 60.9385 11.0822 60.8535 9.99296 60.697C8.9773 60.5423 7.9934 60.2546 7.07371 59.8433C6.16245 59.4353 5.33131 58.9004 4.61212 58.2591C3.88253 57.6253 3.27511 56.8902 2.81393 56.0829C2.34768 55.2704 2.025 54.3995 1.85714 53.5005C1.67587 52.5346 1.57779 51.5578 1.56376 50.5787C1.55259 50.2501 1.53796 49.1559 1.53796 49.1559V13.1585C1.53796 13.1585 1.55354 12.0811 1.56385 11.7646C1.57729 10.787 1.67479 9.81179 1.85552 8.84733C2.02369 7.94589 2.34662 7.07246 2.81312 6.25729C3.2726 5.45059 3.87665 4.71494 4.60185 4.07888C5.32623 3.43677 6.16003 2.89914 7.07284 2.48558C7.99042 2.07557 8.97246 1.78984 9.98607 1.63796C11.0789 1.4799 12.1836 1.39444 13.2908 1.38231L14.8807 1.36328H195.964L197.573 1.38307C198.67 1.3946 199.765 1.4793 200.848 1.63643C201.871 1.79021 202.864 2.07794 203.792 2.49014C205.62 3.32359 207.108 4.64218 208.047 6.2611C208.506 7.07064 208.824 7.93694 208.99 8.83059C209.173 9.80297 209.275 10.7859 209.296 11.7714C209.301 12.2127 209.301 12.6867 209.301 13.1585C209.315 13.7429 209.315 14.2991 209.315 14.8598V47.4728C209.315 48.0389 209.315 48.5913 209.301 49.1482C209.301 49.655 209.301 50.1192 209.295 50.597C209.274 51.5649 209.173 52.5303 208.993 53.4853C208.829 54.3907 208.508 55.2684 208.042 56.0876C207.578 56.8861 206.974 57.6148 206.252 58.2469C205.533 58.8917 204.7 59.4297 203.787 59.8403C202.861 60.2548 201.87 60.5436 200.848 60.697C199.758 60.8544 198.657 60.9393 197.554 60.9512C197.038 60.9618 196.497 60.9679 195.973 60.9679L194.063 60.971L14.8799 60.9679Z" fill="black"/>
</svg>
