<svg width="15" height="15" viewBox="0 0 15 15" fill="none" xmlns="http://www.w3.org/2000/svg">
<path d="M4.28249 14.6489C3.80549 14.6468 3.34142 14.4937 2.95687 14.2114C2.56387 13.935 2.27063 13.539 2.12074 13.0825C1.97086 12.626 1.97235 12.1333 2.12499 11.6777L2.85624 9.41581L0.931243 8.00831C0.54527 7.72631 0.25838 7.32946 0.11162 6.87453C-0.0351406 6.4196 -0.0342507 5.92991 0.114162 5.47551C0.262575 5.02112 0.550906 4.62531 0.937901 4.34472C1.3249 4.06412 1.79073 3.91312 2.26874 3.91331H4.62499L5.34062 1.68206C5.48749 1.22515 5.77558 0.826638 6.16342 0.543925C6.55125 0.261212 7.01881 0.108887 7.49874 0.108887C7.97868 0.108887 8.44624 0.261212 8.83407 0.543925C9.2219 0.826638 9.51 1.22515 9.65687 1.68206L10.375 3.91331H12.7312C13.2092 3.91325 13.6749 4.06435 14.0618 4.34499C14.4487 4.62564 14.737 5.02145 14.8853 5.47581C15.0336 5.93017 15.0345 6.41981 14.8877 6.87468C14.7409 7.32955 14.454 7.72634 14.0681 8.00831L12.1437 9.41581L12.875 11.6777C13.0224 12.1339 13.0213 12.6252 12.8719 13.0808C12.7225 13.5364 12.4324 13.9329 12.0434 14.2132C11.6543 14.4935 11.1864 14.6432 10.707 14.6407C10.2275 14.6383 9.76113 14.4838 9.37499 14.1996L7.49999 12.8208L5.62499 14.2002C5.23703 14.4895 4.76648 14.6468 4.28249 14.6489ZM2.26874 5.78831C2.18625 5.7883 2.10586 5.81437 2.03907 5.86279C1.97227 5.91121 1.9225 5.9795 1.89685 6.05791C1.87119 6.13632 1.87098 6.22083 1.89624 6.29936C1.9215 6.3779 1.97094 6.44644 2.03749 6.49519L4.50999 8.30206C4.6692 8.41847 4.78764 8.58213 4.84846 8.76975C4.90928 8.95737 4.90938 9.15939 4.84874 9.34706L3.91124 12.2533C3.88523 12.3321 3.88496 12.4172 3.91048 12.4962C3.936 12.5752 3.98599 12.644 4.05321 12.6927C4.12043 12.7414 4.2014 12.7675 4.28442 12.7672C4.36743 12.7668 4.44818 12.7401 4.51499 12.6908L6.94562 10.9027C7.10664 10.7842 7.30133 10.7203 7.50124 10.7203C7.70116 10.7203 7.89584 10.7842 8.05687 10.9027L10.4875 12.6902C10.5542 12.7399 10.6351 12.767 10.7183 12.7676C10.8015 12.7682 10.8827 12.7421 10.9501 12.6933C11.0175 12.6445 11.0675 12.5754 11.0929 12.4961C11.1183 12.4169 11.1177 12.3316 11.0912 12.2527L10.1537 9.34644C10.0931 9.15876 10.0932 8.95674 10.154 8.76912C10.2148 8.58151 10.3333 8.41785 10.4925 8.30144L12.9644 6.49456C13.0309 6.44584 13.0803 6.37736 13.1056 6.29889C13.1308 6.22041 13.1307 6.13596 13.1051 6.05758C13.0795 5.97921 13.0299 5.91091 12.9632 5.86244C12.8965 5.81397 12.8162 5.78781 12.7337 5.78769H9.68749C9.48893 5.78764 9.29551 5.72455 9.13512 5.60751C8.97472 5.49046 8.85562 5.32552 8.79499 5.13644L7.87499 2.25456C7.84965 2.17569 7.79993 2.10689 7.73299 2.05808C7.66605 2.00928 7.58534 1.98298 7.50249 1.98298C7.41965 1.98298 7.33894 2.00928 7.272 2.05808C7.20505 2.10689 7.15533 2.17569 7.12999 2.25456L6.20312 5.13706C6.14259 5.32584 6.02378 5.49057 5.86375 5.60758C5.70373 5.72459 5.51073 5.78787 5.31249 5.78831H2.26874Z" fill="#273461"/>
</svg>
