<svg width="20" height="20" viewBox="0 0 20 20" fill="none" xmlns="http://www.w3.org/2000/svg">
<g clip-path="url(#clip0_3_1531)">
<path d="M5.83341 20.0001C6.75389 20.0001 7.50008 19.2539 7.50008 18.3334C7.50008 17.4129 6.75389 16.6667 5.83341 16.6667C4.91294 16.6667 4.16675 17.4129 4.16675 18.3334C4.16675 19.2539 4.91294 20.0001 5.83341 20.0001Z" fill="white"/>
<path d="M14.1667 20.0001C15.0871 20.0001 15.8333 19.2539 15.8333 18.3334C15.8333 17.4129 15.0871 16.6667 14.1667 16.6667C13.2462 16.6667 12.5 17.4129 12.5 18.3334C12.5 19.2539 13.2462 20.0001 14.1667 20.0001Z" fill="white"/>
<path d="M19.1533 5.015C18.5667 4.45408 17.7814 4.14896 16.97 4.16667H4.71167L4.4925 2.44833C4.41292 1.77391 4.08865 1.15213 3.58117 0.700864C3.07368 0.249599 2.41827 0.000218231 1.73917 0L1.25 0C0.918479 0 0.600537 0.131696 0.366116 0.366116C0.131696 0.600537 0 0.918479 0 1.25C0 1.58152 0.131696 1.89946 0.366116 2.13388C0.600537 2.3683 0.918479 2.5 1.25 2.5H1.73917C1.80734 2.50073 1.87283 2.52668 1.92299 2.57285C1.97316 2.61901 2.00445 2.68212 2.01083 2.75L3.26083 12.5492C3.33967 13.2241 3.66364 13.8466 4.17122 14.2984C4.6788 14.7502 5.33463 14.9999 6.01417 15H14.4492C15.4526 14.9994 16.428 14.6696 17.2259 14.0611C18.0237 13.4526 18.5998 12.5992 18.8658 11.6317L19.9042 7.85583C20.0426 7.3583 20.046 6.83287 19.914 6.33359C19.7821 5.8343 19.5195 5.37917 19.1533 5.015ZM16.4583 10.9692C16.3363 11.4086 16.0739 11.7961 15.7112 12.0724C15.3484 12.3488 14.9052 12.499 14.4492 12.5H6.01417C5.94603 12.4994 5.88054 12.4735 5.83047 12.4273C5.7804 12.3811 5.74934 12.3179 5.74333 12.25L5.03083 6.66667H17.095C17.1594 6.66618 17.223 6.68062 17.2808 6.70884C17.3387 6.73706 17.3892 6.7783 17.4284 6.82933C17.4676 6.88035 17.4945 6.93977 17.507 7.00292C17.5194 7.06608 17.517 7.13125 17.5 7.19333L16.4583 10.9692Z" fill="white"/>
</g>
<defs>
<clipPath id="clip0_3_1531">
<rect width="20" height="20" fill="white"/>
</clipPath>
</defs>
</svg>
