<svg width="125" height="125" viewBox="0 0 125 125" fill="none" xmlns="http://www.w3.org/2000/svg">
<g clip-path="url(#clip0_3_1396)">
<path d="M118.75 31.1612L111.807 24.2394L117.505 18.5467C118.971 17.0811 119.794 15.0933 119.794 13.0206C119.794 10.948 118.971 8.96018 117.505 7.49458C116.039 6.02898 114.052 5.20562 111.979 5.20562C109.906 5.20562 107.919 6.02898 106.453 7.49458L100.76 13.1925L93.8383 6.24979C91.849 4.26047 89.4874 2.68245 86.8882 1.60584C84.289 0.529223 81.5032 -0.0249023 78.6899 -0.0249023C75.8766 -0.0249024 73.0908 0.529223 70.4916 1.60584C67.8924 2.68245 65.5308 4.26047 63.5415 6.24979C61.5521 8.23911 59.9741 10.6008 58.8975 13.2C57.8209 15.7991 57.2668 18.5849 57.2668 21.3982C57.2668 24.2116 57.8209 26.9973 58.8975 29.5965C59.9741 32.1957 61.5521 34.5573 63.5415 36.5467L70.4633 43.4685L43.4685 70.4842L36.5467 63.5415C34.5573 61.5521 32.1957 59.9741 29.5965 58.8975C26.9973 57.8209 24.2116 57.2668 21.3982 57.2668C18.5849 57.2668 15.7991 57.8209 13.2 58.8975C10.6008 59.9741 8.23911 61.5521 6.24979 63.5415C2.23217 67.5591 -0.0249023 73.0081 -0.0249023 78.6899C-0.0249023 84.3717 2.23217 89.8207 6.24979 93.8383L13.1717 100.76L7.49458 106.453C6.02898 107.919 5.20562 109.906 5.20562 111.979C5.20562 114.052 6.02898 116.039 7.49458 117.505C8.96018 118.971 10.948 119.794 13.0206 119.794C15.0933 119.794 17.0811 118.971 18.5467 117.505L24.2394 111.807L31.1612 118.75C35.1789 122.767 40.6279 125.024 46.3097 125.024C51.9915 125.024 57.4405 122.767 61.4581 118.75C65.4757 114.732 67.7328 109.283 67.7328 103.601C67.7328 97.9196 65.4757 92.4705 61.4581 88.4529L54.5362 81.5362L81.5571 54.5154L88.4529 61.4581C90.4422 63.4474 92.8039 65.0255 95.4031 66.1021C98.0023 67.1787 100.788 67.7328 103.601 67.7328C106.415 67.7328 109.2 67.1787 111.8 66.1021C114.399 65.0255 116.76 63.4474 118.75 61.4581C120.739 59.4688 122.317 57.1071 123.394 54.508C124.47 51.9088 125.024 49.123 125.024 46.3097C125.024 43.4964 124.47 40.7106 123.394 38.1114C122.317 35.5122 120.739 33.1506 118.75 31.1612ZM50.3904 107.677C49.2874 108.727 47.8225 109.313 46.2993 109.313C44.776 109.313 43.3112 108.727 42.2081 107.677L17.3175 82.8123C16.2297 81.7245 15.6186 80.2491 15.6186 78.7107C15.6186 77.1723 16.2297 75.697 17.3175 74.6092C18.4053 73.5214 19.8807 72.9102 21.4191 72.9102C22.9574 72.9102 24.4328 73.5214 25.5206 74.6092L50.3904 99.479C51.4737 100.564 52.0821 102.034 52.0821 103.568C52.0821 105.101 51.4737 106.571 50.3904 107.656V107.677ZM107.682 50.3852C106.579 51.4357 105.114 52.0216 103.591 52.0216C102.068 52.0216 100.603 51.4357 99.4998 50.3852L74.6092 25.5206C73.5214 24.4328 72.9102 22.9574 72.9102 21.4191C72.9102 19.8807 73.5214 18.4053 74.6092 17.3175C75.697 16.2297 77.1723 15.6186 78.7107 15.6186C80.2491 15.6186 81.7245 16.2297 82.8123 17.3175L107.682 42.1873C108.765 43.2722 109.374 44.7427 109.374 46.2758C109.374 47.809 108.765 49.2795 107.682 50.3644V50.3852Z" fill="#273461"/>
</g>
<defs>
<clipPath id="clip0_3_1396">
<rect width="125" height="125" fill="white"/>
</clipPath>
</defs>
</svg>
