<svg width="125" height="125" viewBox="0 0 125 125" fill="none" xmlns="http://www.w3.org/2000/svg">
<g clip-path="url(#clip0_3_1394)">
<path d="M83.3333 33.9688V26.0417C83.3333 25.9531 83.3333 25.8698 83.3073 25.7812C86.4696 25.1391 89.2807 23.3457 91.1958 20.7487C93.1109 18.1516 93.9935 14.936 93.6724 11.7252C93.3513 8.51442 91.8495 5.53723 89.4581 3.37085C87.0666 1.20446 83.956 0.00321082 80.7292 0L44.2708 0C41.044 0.00321082 37.9334 1.20446 35.5419 3.37085C33.1505 5.53723 31.6487 8.51442 31.3276 11.7252C31.0065 14.936 31.8891 18.1516 33.8042 20.7487C35.7193 23.3457 38.5304 25.1391 41.6927 25.7812C41.6667 25.8698 41.6667 25.9531 41.6667 26.0417V33.9688C34.5526 34.6277 27.9404 37.9175 23.124 43.1944C18.3075 48.4713 15.6335 55.3555 15.625 62.5V96.3542C15.6333 103.949 18.654 111.23 24.0243 116.601C29.3946 121.971 36.676 124.992 44.2708 125H80.7292C88.324 124.992 95.6054 121.971 100.976 116.601C106.346 111.23 109.367 103.949 109.375 96.3542V62.5C109.367 55.3555 106.692 48.4713 101.876 43.1944C97.0596 37.9175 90.4474 34.6277 83.3333 33.9688ZM93.75 96.3542C93.75 99.8075 92.3782 103.119 89.9363 105.561C87.4944 108.003 84.1825 109.375 80.7292 109.375H44.2708C40.8175 109.375 37.5056 108.003 35.0637 105.561C32.6218 103.119 31.25 99.8075 31.25 96.3542V62.5C31.25 59.0467 32.6218 55.7348 35.0637 53.2929C37.5056 50.851 40.8175 49.4792 44.2708 49.4792H49.4792C51.5512 49.4792 53.5383 48.6561 55.0034 47.1909C56.4686 45.7258 57.2917 43.7387 57.2917 41.6667V26.0417H67.7083V41.6667C67.7083 43.7387 68.5314 45.7258 69.9966 47.1909C71.4617 48.6561 73.4488 49.4792 75.5208 49.4792H80.7292C84.1825 49.4792 87.4944 50.851 89.9363 53.2929C92.3782 55.7348 93.75 59.0467 93.75 62.5V96.3542ZM83.3333 78.125C83.3333 80.197 82.5102 82.1841 81.0451 83.6493C79.58 85.1144 77.5928 85.9375 75.5208 85.9375H70.3125V91.1458C70.3125 93.2178 69.4894 95.205 68.0243 96.6701C66.5591 98.1352 64.572 98.9583 62.5 98.9583C60.428 98.9583 58.4409 98.1352 56.9757 96.6701C55.5106 95.205 54.6875 93.2178 54.6875 91.1458V85.9375H49.4792C47.4072 85.9375 45.42 85.1144 43.9549 83.6493C42.4898 82.1841 41.6667 80.197 41.6667 78.125C41.6667 76.053 42.4898 74.0659 43.9549 72.6007C45.42 71.1356 47.4072 70.3125 49.4792 70.3125H54.6875V65.1042C54.6875 63.0322 55.5106 61.045 56.9757 59.5799C58.4409 58.1148 60.428 57.2917 62.5 57.2917C64.572 57.2917 66.5591 58.1148 68.0243 59.5799C69.4894 61.045 70.3125 63.0322 70.3125 65.1042V70.3125H75.5208C77.5928 70.3125 79.58 71.1356 81.0451 72.6007C82.5102 74.0659 83.3333 76.053 83.3333 78.125Z" fill="#273461"/>
</g>
<defs>
<clipPath id="clip0_3_1394">
<rect width="125" height="125" fill="white"/>
</clipPath>
</defs>
</svg>
