<svg width="125" height="125" viewBox="0 0 125 125" fill="none" xmlns="http://www.w3.org/2000/svg">
<g clip-path="url(#clip0_3_1398)">
<path d="M115.573 59.5834C118.229 55.2084 119.792 49.948 119.792 44.2709C119.792 30.2084 110.365 18.8542 97.4479 16.198C98.1771 15.7292 98.8542 15.1563 99.4792 14.5313C102.76 11.2501 103.802 6.66674 104.115 3.48966C104.323 1.51049 102.604 -0.208258 100.625 7.49622e-05C97.4479 0.312575 92.8646 1.40632 89.5833 4.63549C88.6458 5.57299 87.9167 6.56258 87.2917 7.65633C84.1667 4.16674 80.7812 1.92716 79.6354 1.19799C75.9896 -1.09368 71.1979 -0.0520082 68.9062 3.59383C66.5625 7.23966 67.6562 12.0313 71.25 14.3751C71.8229 14.7397 72.3958 15.1563 72.9688 15.6251H72.7083C68.75 15.6251 64.8958 16.4584 61.3542 17.9688C58.2812 16.6147 54.8958 15.7813 51.3021 15.6251C51.7188 15.2605 52.1875 14.8959 52.5521 14.5313C55.8333 11.2501 56.875 6.66674 57.1875 3.48966C57.3958 1.51049 55.6771 -0.208258 53.6979 7.49622e-05C50.5208 0.312575 45.9375 1.40632 42.6562 4.63549C41.7188 5.57299 40.9896 6.56258 40.3646 7.65633C37.2396 4.16674 33.8542 1.92716 32.7083 1.19799C29.2188 -1.09368 24.375 7.50534e-05 22.0833 3.59383C19.7396 7.23966 20.8333 12.0313 24.4271 14.3751C25.2604 14.8959 26.1458 15.573 26.9792 16.3022C14.375 19.1667 5.20833 30.4167 5.20833 44.2709C5.20833 49.948 6.77083 55.1563 9.42708 59.5834C3.80208 62.7084 0 68.698 0 75.5209V96.3542C0 112.135 12.8646 125 28.6458 125H96.3542C112.135 125 125 112.135 125 96.3542V75.5209C125 68.6459 121.198 62.6563 115.573 59.5834ZM104.167 44.2709C104.167 51.7188 98.8021 57.2917 91.6667 57.2917H75.1563C77.0833 53.3855 78.125 49.0105 78.125 44.2709C78.125 39.5313 77.0833 35.1563 75.1563 31.2501H91.6667C98.8021 31.2501 104.167 36.823 104.167 44.2709ZM33.3333 31.2501H50.0521C57.1875 31.2501 62.5521 36.823 62.5521 44.2709C62.5521 51.7188 57.1875 57.2917 50.0521 57.2917H33.3333C26.1979 57.2917 20.8333 51.7188 20.8333 44.2709C20.8333 36.823 26.1979 31.2501 33.3333 31.2501ZM109.375 96.3542C109.375 103.542 103.542 109.375 96.3542 109.375H28.6458C22.3438 109.375 17.0833 104.896 15.8854 98.9584H91.1458C95.4688 98.9584 98.9583 95.4688 98.9583 91.1459C98.9583 86.823 95.4688 83.3334 91.1458 83.3334H15.625V75.5209C15.625 74.0626 16.7708 72.9167 18.2292 72.9167H106.771C108.229 72.9167 109.375 74.0626 109.375 75.5209V96.3542Z" fill="#273461"/>
</g>
<defs>
<clipPath id="clip0_3_1398">
<rect width="125" height="125" fill="white"/>
</clipPath>
</defs>
</svg>
