<svg width="125" height="125" viewBox="0 0 125 125" fill="none" xmlns="http://www.w3.org/2000/svg">
<g clip-path="url(#clip0_3_1400)">
<path d="M75.5208 67.7077C73.9756 67.7077 72.4651 67.2495 71.1804 66.3911C69.8956 65.5327 68.8943 64.3125 68.303 62.885C67.7117 61.4574 67.5569 59.8866 67.8584 58.3711C68.1598 56.8556 68.9039 55.4636 69.9965 54.371C71.0891 53.2784 72.4812 52.5343 73.9966 52.2329C75.5121 51.9314 77.0829 52.0861 78.5105 52.6774C79.938 53.2687 81.1582 54.2701 82.0166 55.5549C82.8751 56.8396 83.3333 58.3501 83.3333 59.8952C83.3333 61.9672 82.5102 63.9544 81.0451 65.4195C79.5799 66.8846 77.5928 67.7077 75.5208 67.7077ZM124.588 92.5567C125.28 96.5358 125.094 100.618 124.041 104.517C122.989 108.417 121.097 112.039 118.497 115.13C115.898 118.221 112.653 120.706 108.992 122.411C105.331 124.116 101.341 124.999 97.302 124.999H80.7291C78.6571 124.999 76.67 124.176 75.2048 122.711C73.7397 121.246 72.9166 119.259 72.9166 117.187V107.947C69.5143 108.839 66.0169 109.319 62.4999 109.374C58.9769 109.364 55.472 108.869 52.0833 107.906V117.187C52.0833 119.259 51.2602 121.246 49.795 122.711C48.3299 124.176 46.3428 124.999 44.2708 124.999H27.6926C23.6543 124.998 19.665 124.114 16.0043 122.409C12.3436 120.704 9.10001 118.219 6.50091 115.128C3.90181 112.037 2.01003 108.415 0.958115 104.516C-0.0937994 100.617 -0.280396 96.5354 0.4114 92.5567L2.49473 82.015C3.11999 78.6017 4.74858 75.4522 7.17246 72.9689C9.59634 70.4856 12.7055 68.7812 16.1027 68.0735C19.4999 67.3657 23.031 67.6868 26.2449 68.9956C29.4587 70.3044 32.2095 72.5416 34.1458 75.4213C39.8854 83.8536 50.7551 93.7494 62.4999 93.7494C69.6304 93.3811 76.5062 90.9779 82.3138 86.8244C88.1214 82.6709 92.6177 76.9407 95.2708 70.3119C95.8095 68.7881 96.8077 67.4688 98.1276 66.536C99.4475 65.6032 101.024 65.1027 102.641 65.1036H104.302C105.645 65.0927 106.93 64.554 107.879 63.6039C108.828 62.6537 109.365 61.3684 109.375 60.0254C109.375 58.9461 108.996 57.9011 108.304 57.0729C107.612 56.2446 106.651 55.6859 105.588 55.4942C103.928 55.1918 102.409 54.3596 101.261 53.1221C100.113 51.8846 99.3962 50.3084 99.2187 48.6296C98.2719 39.5579 93.9925 31.1602 87.209 25.0629C80.4256 18.9655 71.6209 15.6022 62.4999 15.6244C36.4583 15.6244 29.5885 30.9629 23.5416 44.4994L22.8906 45.9525C36.7122 44.0611 49.5964 37.8949 59.7395 28.3171C60.4591 27.5605 61.323 26.9558 62.2803 26.5387C63.2375 26.1217 64.2687 25.9008 65.3128 25.889C66.3569 25.8773 67.3927 26.0749 68.3591 26.4703C69.3255 26.8657 70.2029 27.4509 70.9393 28.1911C71.6757 28.9313 72.2562 29.8117 72.6466 30.7801C73.037 31.7486 73.2293 32.7854 73.2121 33.8294C73.195 34.8735 72.9687 35.9035 72.5467 36.8585C72.1247 37.8136 71.5155 38.6744 70.7551 39.39C65.3521 44.7266 59.162 49.2023 52.401 52.6609C53.8409 53.2318 55.0795 54.2162 55.9607 55.49C56.8419 56.7639 57.3263 58.2701 57.3526 59.8189C57.379 61.3676 56.9463 62.8894 56.1089 64.1926C55.2716 65.4957 54.0672 66.5217 52.6476 67.1413C51.228 67.7609 49.6567 67.9463 48.1318 67.6741C46.607 67.402 45.1968 66.6844 44.0792 65.612C42.9616 64.5396 42.1865 63.1602 41.8517 61.6479C41.5169 60.1356 41.6373 58.558 42.1979 57.114C30.9914 61.143 19.1128 62.9716 7.21348 62.4994C5.53919 62.385 3.94623 61.7345 2.67044 60.6443C1.39465 59.554 0.503838 58.0819 0.129894 56.4459C-0.244049 54.8099 -0.081249 53.097 0.594193 51.5607C1.26963 50.0244 2.42181 48.7465 3.88015 47.9161C6.17348 44.9484 7.99364 41.6437 9.27598 38.1192C15.6249 23.864 26.3176 -0.000586549 62.4999 -0.000586549C74.6178 -0.0291647 86.3712 4.14217 95.7599 11.8035C105.149 19.4649 111.592 30.1429 113.995 42.0202C117.306 43.7154 120.086 46.2913 122.027 49.4643C123.969 52.6374 124.998 56.2846 125 60.0046C124.994 64.3534 123.604 68.5874 121.031 72.0932L124.588 92.5567ZM36.4583 100.072C30.5272 95.6692 25.376 90.3032 21.2187 84.1973C21.0594 83.9266 20.8304 83.7036 20.5556 83.5515C20.2808 83.3994 19.9702 83.3239 19.6562 83.3327C19.2236 83.3444 18.8087 83.507 18.4834 83.7924C18.1581 84.0777 17.9429 84.4679 17.8749 84.8952L15.7916 95.4317C15.5237 97.1522 15.6307 98.9103 16.1055 100.586C16.5802 102.261 17.4114 103.814 18.5421 105.138C19.6729 106.462 21.0765 107.526 22.6567 108.257C24.237 108.989 25.9566 109.37 27.6979 109.374H36.4583V100.072ZM109.193 95.2286L106.911 82.114C102.484 89.9482 96.1692 96.5525 88.5416 101.328V109.374H97.2968C99.0571 109.374 100.796 108.988 102.392 108.245C103.987 107.502 105.401 106.419 106.535 105.072C107.668 103.725 108.493 102.146 108.952 100.447C109.411 98.7474 109.493 96.963 109.193 95.2286Z" fill="#273461"/>
</g>
<defs>
<clipPath id="clip0_3_1400">
<rect width="125" height="125" fill="white"/>
</clipPath>
</defs>
</svg>
