<svg width="125" height="125" viewBox="0 0 125 125" fill="none" xmlns="http://www.w3.org/2000/svg">
<g clip-path="url(#clip0_3_1402)">
<path d="M118.057 17.6718L116.839 16.453C102.203 1.81763 78.5833 1.41659 64.1927 15.5416C63.9427 15.7864 63.6927 16.0416 63.4479 16.2916L52.0208 9.16138C40.927 2.23429 26.3229 4.65617 18.052 14.7916L5.85934 29.7447C-1.66149 38.9635 -1.9792 52.0885 5.08851 61.6562L11.0364 69.7239C1.60413 84.0364 3.47392 103.854 16.4479 116.833L17.6666 118.052C22.2864 122.672 28.3593 124.984 34.427 124.984C40.4948 124.984 46.5677 122.672 51.1875 118.052L118.057 51.1874C127.297 41.9478 127.297 26.9114 118.057 17.6718ZM105.792 27.4999L107.01 28.7187C110.156 31.8697 110.156 36.9947 107.01 40.1458L104.958 42.1978L77.2343 24.8958C85.6041 18.651 97.8698 19.5885 105.792 27.4999ZM17.9635 39.6145L30.1562 24.6666C33.4687 20.6093 39.302 19.6458 43.7448 22.4114L66.177 36.4114L50.0156 52.578C40.8385 51.8697 31.1718 52.9426 22.302 58.6874L17.6562 52.3853C14.8281 48.5572 14.9531 43.302 17.9635 39.6145ZM40.1406 107.005C37.0885 110.057 31.7708 110.057 28.7187 107.005L27.5 105.786C18.9739 97.2603 18.5833 83.2499 26.6406 75.1874C31.9635 69.8645 37.9062 67.9687 44.9531 67.9687C50.8645 67.9687 57.552 69.302 65.302 71.0676C68.2604 71.7395 71.2448 72.4166 74.1979 72.953L40.1458 107.005H40.1406ZM90.7083 56.4374C87.1406 60.0051 78.6614 58.0832 68.8333 55.8437L79.7812 44.8957L93.6146 53.5312L90.8125 56.3332C90.776 56.3645 90.7448 56.401 90.7083 56.4374Z" fill="#273461"/>
</g>
<defs>
<clipPath id="clip0_3_1402">
<rect width="125" height="125" fill="white"/>
</clipPath>
</defs>
</svg>
