<svg width="100" height="100" viewBox="0 0 100 100" fill="none" xmlns="http://www.w3.org/2000/svg">
<g clip-path="url(#clip0_37_814)">
<mask id="mask0_37_814" style="mask-type:luminance" maskUnits="userSpaceOnUse" x="0" y="0" width="100" height="100">
<path d="M100 0H0V100H100V0Z" fill="white"/>
</mask>
<g mask="url(#mask0_37_814)">
<path d="M41.2646 9.20343L49.8786 17.6964M49.8786 17.6964L58.4926 26.1894M49.8786 17.6964L58.6645 8.7854M49.8786 17.6964L41.6785 26.0134" stroke="#273461" stroke-width="6"/>
<path d="M8.2002 75.3324L16.8142 83.8254M16.8142 83.8254L25.4282 92.3184M16.8142 83.8254L25.6001 74.9143M16.8142 83.8254L8.61405 92.1423" stroke="#273461" stroke-width="6"/>
<path d="M73.5228 8.91046L82.1368 17.4035M82.1368 17.4035L90.7508 25.8965M82.1368 17.4035L90.9226 8.49243M82.1368 17.4035L73.9366 25.7204" stroke="#273461" stroke-width="6"/>
<path d="M26.0323 52.7118C26.0323 57.7358 21.9595 61.8086 16.9355 61.8086C11.9115 61.8086 7.83875 57.7358 7.83875 52.7118C7.83875 47.6878 11.9115 43.615 16.9355 43.615C21.9595 43.615 26.0323 47.6878 26.0323 52.7118Z" stroke="#273461" stroke-width="6"/>
<path d="M59.0967 52.7118C59.0967 57.7358 55.024 61.8086 50 61.8086C44.976 61.8086 40.9032 57.7358 40.9032 52.7118C40.9032 47.6878 44.976 43.615 50 43.615C55.024 43.615 59.0967 47.6878 59.0967 52.7118Z" stroke="#273461" stroke-width="6"/>
<path d="M74.1935 50.292C74.1935 57.6738 71.2765 64.3743 66.5322 69.3036M66.5322 69.3036C61.544 74.4865 54.5357 77.7113 46.7742 77.7113M66.5322 69.3036L79.5 81.5" stroke="#273461" stroke-width="6"/>
</g>
</g>
<defs>
<clipPath id="clip0_37_814">
<rect width="100" height="100" fill="white"/>
</clipPath>
</defs>
</svg>
