<svg width="100" height="100" viewBox="0 0 100 100" fill="none" xmlns="http://www.w3.org/2000/svg">
<path d="M41.1133 2.05078C40.8398 2.30469 40.625 2.65625 40.625 2.8125C40.625 2.98828 40.3906 3.14453 40 3.20312C37.1875 3.61328 36.1719 3.82812 34.4336 4.39453C30.4688 5.70312 27.6758 7.46094 24.5898 10.5273C21.6797 13.4375 19.7656 16.4453 18.5547 20.0781C17.6367 22.832 17.3633 24.4922 17.2461 28.0469L17.1646 30.3687C17.1423 31.0059 16.8075 31.5913 16.2695 31.9336C14.082 33.3203 13.5352 34.4336 14.5508 35.4492C14.9414 35.8398 15.2148 35.9375 16.0742 35.9375C16.6616 35.9375 17.1424 36.4046 17.1595 36.9917L17.2461 39.9805C17.3242 42.6367 17.4609 44.5508 17.6758 45.5078C18.4766 49.1602 19.9023 52.3828 22.0313 55.332C23.418 57.2656 26.4453 60.1758 28.2812 61.3281C29.1447 61.8754 29.668 62.8265 29.668 63.8488V65.4688C29.6788 67.263 28.2397 68.7298 26.4455 68.7532L23.6914 68.7891C17.793 68.8672 17.6367 68.8867 16.1133 69.3945C12.1289 70.7227 8.84766 73.75 7.30469 77.5391C6.34766 79.9023 6.25 81.0156 6.25 89.5703V96.8036C6.25 97.236 6.42634 97.6498 6.73828 97.9492C7.30469 98.5352 8.18359 98.5742 8.80859 98.0664C9.10519 97.8316 9.28034 97.4758 9.28551 97.0975L9.39453 89.1211C9.49219 80.8398 9.51172 80.5273 9.94141 79.3555C11.1133 76.1328 13.6328 73.6133 16.8555 72.4414C18.0078 72.0312 18.418 71.9922 24.2383 71.9141L28.323 71.8754C29.6416 71.8629 30.8816 72.5011 31.6378 73.5814L34.9414 78.3008C37.4219 81.8555 39.4531 84.8047 39.4531 84.8437C39.4531 84.9023 38.9844 85.4102 38.418 85.9766C36.8359 87.5586 36.3672 89.3945 37.0117 91.543C37.3242 92.5781 38.4766 94.0625 39.3359 94.5117C39.8047 94.7656 39.8438 94.8828 39.8438 96.1328C39.8438 97.3047 39.9023 97.5391 40.332 97.9492C40.7812 98.418 40.8789 98.4375 43.75 98.4375C46.6406 98.4375 46.6992 98.4375 47.1875 97.9492C47.4997 97.637 47.6726 97.2119 47.6669 96.7705L47.6172 92.9102C47.5586 88.418 47.5586 88.3789 47.0312 87.3828C46.7383 86.8164 46.1328 86.0547 45.6836 85.6836C45.2539 85.293 44.9219 84.9023 44.9414 84.8242C44.9805 84.7266 47.0312 81.7773 49.4727 78.2617L52.751 73.5805C53.4995 72.5116 54.7225 71.875 56.0274 71.875H58.2227H58.5C60.7091 71.875 62.5 73.6659 62.5 75.875V84.668V96.8036C62.5 97.236 62.6763 97.6498 62.9883 97.9492C63.2878 98.2612 63.7015 98.4375 64.1339 98.4375H78.125H92.1161C92.5485 98.4375 92.9623 98.2612 93.2617 97.9492C93.5737 97.6498 93.75 97.236 93.75 96.8036V80.4688V64.1339C93.75 63.7015 93.5737 63.2877 93.2617 62.9883C92.9623 62.6763 92.5485 62.5 92.1161 62.5H78.125H64.1339C63.7015 62.5 63.2878 62.6763 62.9883 62.9883C62.5195 63.4375 62.5 63.5547 62.5 66.1133C62.5 67.5695 61.3195 68.75 59.8633 68.75H58.5938H57.9102C56.1303 68.75 54.6875 67.3072 54.6875 65.5273V64.1552C54.6875 63.0113 55.2592 61.9431 56.2109 61.3086C58.125 60.0195 61.5625 56.582 62.832 54.6875C64.6484 51.9922 65.8789 49.1406 66.6406 45.8984C66.9336 44.6289 67.0508 43.2617 67.1289 40.0781L67.2012 37.0114C67.2153 36.4143 67.7035 35.9375 68.3008 35.9375C69.1602 35.9375 69.4336 35.8398 69.8242 35.4492C70.4102 34.8633 70.4492 34.0234 69.9219 33.3594C69.707 33.0859 69.0039 32.5195 68.3594 32.1094C67.6285 31.6343 67.1875 30.8217 67.1875 29.95V28.8086C67.1875 23.0273 65.7813 18.3984 62.6758 13.8672C61.3477 11.9141 58.6914 9.19922 56.7383 7.8125C55 6.5625 52.1094 5.07812 50.1367 4.41406C48.8086 3.98438 46.8945 3.57422 44.4922 3.22266C44.0039 3.14453 43.75 3.00781 43.75 2.8125C43.75 2.30469 42.832 1.5625 42.1875 1.5625C41.8164 1.5625 41.4062 1.73828 41.1133 2.05078ZM46.875 6.73828C51.543 7.75391 56.1914 10.6445 59.2383 14.4531C62.2266 18.2031 63.7891 22.3828 64.0039 27.2852L64.0075 27.3643C64.0626 28.5756 62.8933 29.4708 61.7383 29.1016C58.9648 28.2031 55.5273 27.5 51.5625 27.0117C47.5391 26.5234 36.8359 26.5234 32.8125 27.0117C28.9648 27.4805 25.3711 28.2227 22.5781 29.1211L22.5265 29.1376C21.4266 29.4888 20.3144 28.6337 20.3711 27.4805C20.5469 23.7109 21.2695 20.957 22.9492 17.832C26.0938 11.8945 31.875 7.73438 38.6719 6.52344C40.5273 6.19141 44.8828 6.30859 46.875 6.73828ZM51.5625 30.1758C55.0195 30.5859 58.418 31.2891 60.8398 32.0898C61.1933 32.2029 61.1134 32.7244 60.7423 32.7265L52.4805 32.7734C46.8164 32.793 37.5586 32.793 31.8945 32.7734L23.3299 32.7248C23.0063 32.7229 22.9348 32.2692 23.2422 32.168C26.6602 31.0742 31.1328 30.2539 35.7617 29.8828C39.1016 29.6289 48.457 29.8047 51.5625 30.1758ZM64.0625 39.1016C64.0625 44.1797 63.4375 47.0312 61.5234 50.7812C56.6406 60.2734 45.2734 64.7852 35.0586 61.2695C28.8086 59.1211 23.6914 54.0039 21.543 47.7539C20.6641 45.1953 20.4883 43.9844 20.3711 39.8828C20.3069 37.7231 22.0403 35.9375 24.201 35.9375H42.168H60.8984C62.6459 35.9375 64.0625 37.3541 64.0625 39.1016ZM35.1563 64.5703C37.3047 65.1953 40.1172 65.625 42.168 65.625C44.9023 65.625 48.7109 64.9219 51.3086 63.9258C51.5234 63.8477 51.5625 64.3359 51.5234 66.6016L51.5146 67.0199C51.4839 68.4733 50.6671 69.7956 49.3811 70.4737L49.3164 70.5078L49.2525 70.5421C47.9668 71.2317 46.4076 71.1666 45.1839 70.3723L44.9414 70.2148C43.7305 69.4141 42.5391 68.75 42.2852 68.75C42.0508 68.75 40.8594 69.3945 39.6289 70.1953L39.3296 70.3896C38.1362 71.1642 36.6211 71.2467 35.3507 70.606L35.1172 70.4883L35.0236 70.4415C33.6685 69.7639 32.8125 68.3789 32.8125 66.8638V66.582C32.8125 64.043 32.832 63.8281 33.1641 63.9648C33.3398 64.0234 34.2383 64.3164 35.1563 64.5703ZM69.8633 67.6758C70.2344 68.8281 70.6836 69.7656 70.918 69.9609C71.2891 70.2734 71.9531 70.3125 78.125 70.3125C84.2969 70.3125 84.9609 70.2734 85.332 69.9609C85.5664 69.7656 86.0156 68.8281 86.3867 67.6758L86.4783 67.4063C86.8228 66.3932 87.7587 65.6993 88.8281 65.6641C89.8109 65.632 90.625 66.42 90.625 67.4033V80.4688V91.3125C90.625 93.5216 88.8341 95.3125 86.625 95.3125H78.125H69.625C67.4159 95.3125 65.625 93.5216 65.625 91.3125V80.4688V67.4033C65.625 66.42 66.4391 65.632 67.4219 65.6641C68.4914 65.6993 69.4272 66.3932 69.7717 67.4063L69.8633 67.6758ZM83.5156 66.3477C83.3638 66.7916 82.9465 67.0898 82.4773 67.0898H78.125H73.7727C73.3035 67.0898 72.8862 66.7916 72.7344 66.3477C72.6104 65.9947 72.8723 65.625 73.2464 65.625H78.125H83.0036C83.3777 65.625 83.6396 65.9947 83.5156 66.3477ZM44.4727 73.6523C46.4062 74.9219 46.6406 75.0195 47.3438 74.9023C47.9492 74.8242 48.0664 74.8438 47.9102 75.0391C47.8125 75.1758 46.5039 77.0312 45.0391 79.1406C43.5547 81.2695 42.2852 83.0078 42.207 83.0078C42.0508 83.0078 36.3281 74.9219 36.3281 74.707C36.3281 74.6484 36.5039 74.6875 36.6992 74.8047C37.4219 75.1758 38.0078 74.9805 40.0391 73.6328C40.7477 73.1686 41.3951 72.7578 41.7998 72.5105C42.0788 72.3399 42.3783 72.3306 42.6591 72.4984C43.0764 72.7477 43.7474 73.173 44.4727 73.6523ZM43.8281 88.2617C44.3359 88.7891 44.4336 89.0234 44.4336 89.8438C44.4336 90.6836 44.3359 90.8984 43.7891 91.4453C43.2422 91.9922 43.0273 92.0898 42.1875 92.0898C41.3477 92.0898 41.1328 91.9922 40.5859 91.4453C40.0391 90.8984 39.9414 90.6836 39.9414 89.8633C39.9414 88.8477 40.4297 88.0664 41.3086 87.6758C42.0312 87.3633 43.1836 87.6172 43.8281 88.2617Z" fill="#273461"/>
<mask id="mask0_37_825" style="mask-type:luminance" maskUnits="userSpaceOnUse" x="5" y="0" width="91" height="100">
<path d="M95.25 0.4375H5.25V99.4375H95.25V0.4375Z" fill="white"/>
<path d="M41.1133 2.05078C40.8398 2.30469 40.625 2.65625 40.625 2.8125C40.625 2.98828 40.3906 3.14453 40 3.20312C37.1875 3.61328 36.1719 3.82812 34.4336 4.39453C30.4688 5.70312 27.6758 7.46094 24.5898 10.5273C21.6797 13.4375 19.7656 16.4453 18.5547 20.0781C17.6367 22.832 17.3633 24.4922 17.2461 28.0469L17.1646 30.3687C17.1423 31.0059 16.8075 31.5913 16.2695 31.9336C14.082 33.3203 13.5352 34.4336 14.5508 35.4492C14.9414 35.8398 15.2148 35.9375 16.0742 35.9375C16.6616 35.9375 17.1424 36.4046 17.1595 36.9917L17.2461 39.9805C17.3242 42.6367 17.4609 44.5508 17.6758 45.5078C18.4766 49.1602 19.9023 52.3828 22.0313 55.332C23.418 57.2656 26.4453 60.1758 28.2812 61.3281C29.1447 61.8754 29.668 62.8265 29.668 63.8488V65.4688C29.6788 67.263 28.2397 68.7298 26.4455 68.7532L23.6914 68.7891C17.793 68.8672 17.6367 68.8867 16.1133 69.3945C12.1289 70.7227 8.84766 73.75 7.30469 77.5391C6.34766 79.9023 6.25 81.0156 6.25 89.5703V96.8036C6.25 97.236 6.42634 97.6498 6.73828 97.9492C7.30469 98.5352 8.18359 98.5742 8.80859 98.0664C9.10519 97.8316 9.28034 97.4758 9.28551 97.0975L9.39453 89.1211C9.49219 80.8398 9.51172 80.5273 9.94141 79.3555C11.1133 76.1328 13.6328 73.6133 16.8555 72.4414C18.0078 72.0312 18.418 71.9922 24.2383 71.9141L28.323 71.8754C29.6416 71.8629 30.8816 72.5011 31.6378 73.5814L34.9414 78.3008C37.4219 81.8555 39.4531 84.8047 39.4531 84.8437C39.4531 84.9023 38.9844 85.4102 38.418 85.9766C36.8359 87.5586 36.3672 89.3945 37.0117 91.543C37.3242 92.5781 38.4766 94.0625 39.3359 94.5117C39.8047 94.7656 39.8438 94.8828 39.8438 96.1328C39.8438 97.3047 39.9023 97.5391 40.332 97.9492C40.7812 98.418 40.8789 98.4375 43.75 98.4375C46.6406 98.4375 46.6992 98.4375 47.1875 97.9492C47.4997 97.637 47.6726 97.2119 47.6669 96.7705L47.6172 92.9102C47.5586 88.418 47.5586 88.3789 47.0312 87.3828C46.7383 86.8164 46.1328 86.0547 45.6836 85.6836C45.2539 85.293 44.9219 84.9023 44.9414 84.8242C44.9805 84.7266 47.0312 81.7773 49.4727 78.2617L52.751 73.5805C53.4995 72.5116 54.7225 71.875 56.0274 71.875H58.2227H58.5C60.7091 71.875 62.5 73.6659 62.5 75.875V84.668V96.8036C62.5 97.236 62.6763 97.6498 62.9883 97.9492C63.2878 98.2612 63.7015 98.4375 64.1339 98.4375H78.125H92.1161C92.5485 98.4375 92.9623 98.2612 93.2617 97.9492C93.5737 97.6498 93.75 97.236 93.75 96.8036V80.4688V64.1339C93.75 63.7015 93.5737 63.2877 93.2617 62.9883C92.9623 62.6763 92.5485 62.5 92.1161 62.5H78.125H64.1339C63.7015 62.5 63.2878 62.6763 62.9883 62.9883C62.5195 63.4375 62.5 63.5547 62.5 66.1133C62.5 67.5695 61.3195 68.75 59.8633 68.75H58.5938H57.9102C56.1303 68.75 54.6875 67.3072 54.6875 65.5273V64.1552C54.6875 63.0113 55.2592 61.9431 56.2109 61.3086C58.125 60.0195 61.5625 56.582 62.832 54.6875C64.6484 51.9922 65.8789 49.1406 66.6406 45.8984C66.9336 44.6289 67.0508 43.2617 67.1289 40.0781L67.2012 37.0114C67.2153 36.4143 67.7035 35.9375 68.3008 35.9375C69.1602 35.9375 69.4336 35.8398 69.8242 35.4492C70.4102 34.8633 70.4492 34.0234 69.9219 33.3594C69.707 33.0859 69.0039 32.5195 68.3594 32.1094C67.6285 31.6343 67.1875 30.8217 67.1875 29.95V28.8086C67.1875 23.0273 65.7813 18.3984 62.6758 13.8672C61.3477 11.9141 58.6914 9.19922 56.7383 7.8125C55 6.5625 52.1094 5.07812 50.1367 4.41406C48.8086 3.98438 46.8945 3.57422 44.4922 3.22266C44.0039 3.14453 43.75 3.00781 43.75 2.8125C43.75 2.30469 42.832 1.5625 42.1875 1.5625C41.8164 1.5625 41.4062 1.73828 41.1133 2.05078ZM46.875 6.73828C51.543 7.75391 56.1914 10.6445 59.2383 14.4531C62.2266 18.2031 63.7891 22.3828 64.0039 27.2852L64.0075 27.3643C64.0626 28.5756 62.8933 29.4708 61.7383 29.1016C58.9648 28.2031 55.5273 27.5 51.5625 27.0117C47.5391 26.5234 36.8359 26.5234 32.8125 27.0117C28.9648 27.4805 25.3711 28.2227 22.5781 29.1211L22.5265 29.1376C21.4266 29.4888 20.3144 28.6337 20.3711 27.4805C20.5469 23.7109 21.2695 20.957 22.9492 17.832C26.0938 11.8945 31.875 7.73438 38.6719 6.52344C40.5273 6.19141 44.8828 6.30859 46.875 6.73828ZM51.5625 30.1758C55.0195 30.5859 58.418 31.2891 60.8398 32.0898C61.1933 32.2029 61.1134 32.7244 60.7423 32.7265L52.4805 32.7734C46.8164 32.793 37.5586 32.793 31.8945 32.7734L23.3299 32.7248C23.0063 32.7229 22.9348 32.2692 23.2422 32.168C26.6602 31.0742 31.1328 30.2539 35.7617 29.8828C39.1016 29.6289 48.457 29.8047 51.5625 30.1758ZM64.0625 39.1016C64.0625 44.1797 63.4375 47.0312 61.5234 50.7812C56.6406 60.2734 45.2734 64.7852 35.0586 61.2695C28.8086 59.1211 23.6914 54.0039 21.543 47.7539C20.6641 45.1953 20.4883 43.9844 20.3711 39.8828C20.3069 37.7231 22.0403 35.9375 24.201 35.9375H42.168H60.8984C62.6459 35.9375 64.0625 37.3541 64.0625 39.1016ZM35.1563 64.5703C37.3047 65.1953 40.1172 65.625 42.168 65.625C44.9023 65.625 48.7109 64.9219 51.3086 63.9258C51.5234 63.8477 51.5625 64.3359 51.5234 66.6016L51.5146 67.0199C51.4839 68.4733 50.6671 69.7956 49.3811 70.4737L49.3164 70.5078L49.2525 70.5421C47.9668 71.2317 46.4076 71.1666 45.1839 70.3723L44.9414 70.2148C43.7305 69.4141 42.5391 68.75 42.2852 68.75C42.0508 68.75 40.8594 69.3945 39.6289 70.1953L39.3296 70.3896C38.1362 71.1642 36.6211 71.2467 35.3507 70.606L35.1172 70.4883L35.0236 70.4415C33.6685 69.7639 32.8125 68.3789 32.8125 66.8638V66.582C32.8125 64.043 32.832 63.8281 33.1641 63.9648C33.3398 64.0234 34.2383 64.3164 35.1563 64.5703ZM69.8633 67.6758C70.2344 68.8281 70.6836 69.7656 70.918 69.9609C71.2891 70.2734 71.9531 70.3125 78.125 70.3125C84.2969 70.3125 84.9609 70.2734 85.332 69.9609C85.5664 69.7656 86.0156 68.8281 86.3867 67.6758L86.4783 67.4063C86.8228 66.3932 87.7587 65.6993 88.8281 65.6641C89.8109 65.632 90.625 66.42 90.625 67.4033V80.4688V91.3125C90.625 93.5216 88.8341 95.3125 86.625 95.3125H78.125H69.625C67.4159 95.3125 65.625 93.5216 65.625 91.3125V80.4688V67.4033C65.625 66.42 66.4391 65.632 67.4219 65.6641C68.4914 65.6993 69.4272 66.3932 69.7717 67.4063L69.8633 67.6758ZM83.5156 66.3477C83.3638 66.7916 82.9465 67.0898 82.4773 67.0898H78.125H73.7727C73.3035 67.0898 72.8862 66.7916 72.7344 66.3477C72.6104 65.9947 72.8723 65.625 73.2464 65.625H78.125H83.0036C83.3777 65.625 83.6396 65.9947 83.5156 66.3477ZM44.4727 73.6523C46.4062 74.9219 46.6406 75.0195 47.3438 74.9023C47.9492 74.8242 48.0664 74.8438 47.9102 75.0391C47.8125 75.1758 46.5039 77.0312 45.0391 79.1406C43.5547 81.2695 42.2852 83.0078 42.207 83.0078C42.0508 83.0078 36.3281 74.9219 36.3281 74.707C36.3281 74.6484 36.5039 74.6875 36.6992 74.8047C37.4219 75.1758 38.0078 74.9805 40.0391 73.6328C40.7477 73.1686 41.3951 72.7578 41.7998 72.5105C42.0788 72.3399 42.3783 72.3306 42.6591 72.4984C43.0764 72.7477 43.7474 73.173 44.4727 73.6523ZM43.8281 88.2617C44.3359 88.7891 44.4336 89.0234 44.4336 89.8438C44.4336 90.6836 44.3359 90.8984 43.7891 91.4453C43.2422 91.9922 43.0273 92.0898 42.1875 92.0898C41.3477 92.0898 41.1328 91.9922 40.5859 91.4453C40.0391 90.8984 39.9414 90.6836 39.9414 89.8633C39.9414 88.8477 40.4297 88.0664 41.3086 87.6758C42.0312 87.3633 43.1836 87.6172 43.8281 88.2617Z" fill="black"/>
</mask>
<g mask="url(#mask0_37_825)">
<path d="M43.4086 94.639C43.7573 94.5325 44.0669 94.4561 44.3066 94.4561C44.4246 94.4561 44.6094 94.473 44.7732 94.5931C44.9696 94.7372 45.0312 94.9475 45.0312 95.1172H44.0312C44.0312 95.1423 44.0352 95.1905 44.0604 95.2478C44.0873 95.309 44.1302 95.3616 44.1819 95.3995C44.2724 95.4659 44.3449 95.4561 44.3066 95.4561C44.2794 95.4561 44.2186 95.4615 44.1093 95.4851C44.0036 95.5079 43.8693 95.5439 43.7008 95.5954L43.4086 94.639ZM41.1133 2.05078L41.8428 2.73472L41.8191 2.75999L41.7937 2.78357L41.1133 2.05078ZM40 3.20312L40.1483 4.19206L40.1443 4.19266L40 3.20312ZM34.4336 4.39453L34.1202 3.44491L34.1238 3.44373L34.4336 4.39453ZM24.5898 10.5273L23.8827 9.82023L23.885 9.81799L24.5898 10.5273ZM17.2461 28.0469L18.2456 28.0798L18.2455 28.0819L17.2461 28.0469ZM17.6758 45.5078L18.6515 45.2888L18.6526 45.2936L17.6758 45.5078ZM22.0313 55.332L22.8421 54.7467L22.8439 54.7492L22.0313 55.332ZM7.30469 77.5391L6.3778 77.1637L6.37853 77.1619L7.30469 77.5391ZM9.39453 89.1211L10.3945 89.1329L10.3944 89.1348L9.39453 89.1211ZM9.94141 79.3555L10.8812 79.6972L10.8803 79.6997L9.94141 79.3555ZM16.8555 72.4414L16.5137 71.5016L16.5201 71.4993L16.8555 72.4414ZM24.2383 71.9141L24.2249 70.9141H24.2288L24.2383 71.9141ZM34.9414 78.3008L35.7606 77.7273L35.7615 77.7285L34.9414 78.3008ZM37.0117 91.543L36.0544 91.832L36.0539 91.8303L37.0117 91.543ZM39.3359 94.5117L39.7992 93.6255L39.8057 93.6289L39.8122 93.6324L39.3359 94.5117ZM40.332 97.9492L41.0225 97.2259L41.0386 97.2412L41.054 97.2573L40.332 97.9492ZM47.0312 87.3828L46.1474 87.8507L46.143 87.8422L47.0312 87.3828ZM45.6836 85.6836L45.0467 86.4546L45.0285 86.4395L45.0109 86.4235L45.6836 85.6836ZM44.9414 84.8242L43.9713 84.5817L43.9877 84.5158L44.0129 84.4528L44.9414 84.8242ZM49.4727 78.2617L48.6513 77.6913L48.6535 77.6881L49.4727 78.2617ZM62.832 54.6875L62.0013 54.1308L62.0028 54.1286L62.832 54.6875ZM66.6406 45.8984L67.615 46.1233L67.6141 46.1271L66.6406 45.8984ZM69.9219 33.3594L69.1388 33.9813L69.1356 33.9772L69.9219 33.3594ZM62.6758 13.8672L61.8509 14.4325L61.8489 14.4295L62.6758 13.8672ZM56.7383 7.8125L56.1594 8.62789L56.1545 8.62437L56.7383 7.8125ZM50.1367 4.41406L50.4446 3.46255L50.4558 3.46632L50.1367 4.41406ZM44.4922 3.22266L44.3474 4.2122L44.3342 4.21009L44.4922 3.22266ZM46.875 6.73828L47.0858 5.76076L47.0876 5.76114L46.875 6.73828ZM59.2383 14.4531L60.0192 13.8284L60.0203 13.8299L59.2383 14.4531ZM64.0039 27.2852L63.0049 27.3306V27.3289L64.0039 27.2852ZM51.5625 27.0117L51.683 26.019L51.6847 26.0192L51.5625 27.0117ZM22.5781 29.1211L22.8844 30.0731L22.8823 30.0737L22.5781 29.1211ZM22.9492 17.832L23.833 18.3001L23.83 18.3055L22.9492 17.832ZM52.4805 32.7734L52.4862 33.7734H52.4839L52.4805 32.7734ZM31.8945 32.7734L31.8911 33.7734H31.8889L31.8945 32.7734ZM35.7617 29.8828L35.6818 28.886L35.6859 28.8857L35.7617 29.8828ZM61.5234 50.7812L62.4141 51.2359L62.4127 51.2387L61.5234 50.7812ZM35.1563 64.5703L35.4229 63.6064L35.4356 63.6101L35.1563 64.5703ZM51.3086 63.9258L50.9506 62.9921L50.9587 62.989L50.9669 62.986L51.3086 63.9258ZM51.5234 66.6016L52.5233 66.6188L52.5232 66.6227L51.5234 66.6016ZM49.3164 70.5078L48.8437 69.6265L48.85 69.6232L49.3164 70.5078ZM44.9414 70.2148L44.3969 71.0537L44.3898 71.049L44.9414 70.2148ZM39.6289 70.1953L40.1744 71.0335L40.1734 71.0341L39.6289 70.1953ZM35.1172 70.4883L35.5644 69.5938L35.5675 69.5954L35.1172 70.4883ZM33.1641 63.9648L32.8478 64.9135L32.8152 64.9026L32.7833 64.8895L33.1641 63.9648ZM69.8633 67.6758L70.8101 67.3539L70.8127 67.3615L70.8151 67.3692L69.8633 67.6758ZM70.918 69.9609L71.5582 69.1927L71.5621 69.196L70.918 69.9609ZM85.332 69.9609L84.6879 69.196L84.6918 69.1927L85.332 69.9609ZM86.3867 67.6758L85.4349 67.3692L85.4373 67.3615L85.4399 67.3539L86.3867 67.6758ZM44.4727 73.6523L43.9238 74.4883L43.9212 74.4866L44.4727 73.6523ZM47.3438 74.9023L47.1794 73.9159L47.1975 73.9129L47.2158 73.9106L47.3438 74.9023ZM47.9102 75.0391L47.0964 74.4578L47.1123 74.4356L47.1293 74.4144L47.9102 75.0391ZM45.0391 79.1406L45.8604 79.711L45.8594 79.7126L45.0391 79.1406ZM36.6992 74.8047L36.2424 75.6943L36.213 75.6792L36.1847 75.6622L36.6992 74.8047ZM40.0391 73.6328L39.4862 72.7995L39.491 72.7964L40.0391 73.6328ZM43.8281 88.2617L44.5352 87.5546L44.5419 87.5613L44.5484 87.5681L43.8281 88.2617ZM41.3086 87.6758L40.9024 86.7619L40.9117 86.7579L41.3086 87.6758ZM41.7937 2.78357C41.761 2.81396 41.7265 2.85064 41.6934 2.89088C41.6602 2.93116 41.6326 2.96985 41.6121 3.00225C41.5902 3.03685 41.5841 3.05234 41.5866 3.04618C41.5881 3.04259 41.5956 3.02422 41.6036 2.99306C41.6107 2.96527 41.625 2.90126 41.625 2.8125H39.625C39.625 2.57874 39.6962 2.38387 39.7391 2.28035C39.7904 2.15639 39.8551 2.03883 39.9211 1.93427C40.0525 1.72618 40.2292 1.50707 40.4328 1.31799L41.7937 2.78357ZM41.625 2.8125C41.625 3.38846 41.2418 3.73888 40.9959 3.89542C40.7326 4.06296 40.4292 4.14994 40.1483 4.19206L39.8517 2.21419C39.9615 2.19772 39.9706 2.17727 39.9221 2.20809C39.891 2.22791 39.625 2.41232 39.625 2.8125H41.625ZM40.1443 4.19266C37.3593 4.59879 36.4058 4.80364 34.7434 5.34533L34.1238 3.44373C35.9379 2.85261 37.0157 2.62776 39.8557 2.21358L40.1443 4.19266ZM34.747 5.34414C30.9393 6.60086 28.2781 8.27213 25.2947 11.2367L23.885 9.81799C27.0734 6.64974 29.9982 4.80537 34.1202 3.44491L34.747 5.34414ZM25.297 11.2344C22.4859 14.0455 20.6607 16.9225 19.5034 20.3943L17.606 19.7619C18.8706 15.9682 20.8734 12.8295 23.8827 9.82023L25.297 11.2344ZM19.5034 20.3943C18.6218 23.0392 18.3602 24.601 18.2456 28.0798L16.2466 28.0139C16.3663 24.3834 16.6517 22.6249 17.606 19.7619L19.5034 20.3943ZM18.2455 28.0819L18.164 30.4038L16.1652 30.3336L16.2467 28.0118L18.2455 28.0819ZM16.8049 32.7782C15.7343 33.4569 15.2603 33.9573 15.1072 34.2702C15.0469 34.3934 15.0581 34.4431 15.0612 34.4577C15.0672 34.4856 15.0971 34.5813 15.2579 34.7421L13.8437 36.1563C13.4966 35.8093 13.2141 35.385 13.1053 34.8751C12.9936 34.3521 13.0879 33.8463 13.3108 33.3909C13.7241 32.5466 14.6173 31.797 15.7341 31.089L16.8049 32.7782ZM15.2579 34.7421C15.3932 34.8774 15.4282 34.8831 15.4467 34.8891C15.5105 34.9099 15.6574 34.9375 16.0742 34.9375V36.9375C15.6317 36.9375 15.2122 36.9163 14.8267 36.7906C14.396 36.6501 14.099 36.4117 13.8437 36.1563L15.2579 34.7421ZM18.159 36.9628L18.2457 39.9515L16.2465 40.0099L16.1599 37.0207L18.159 36.9628ZM18.2457 39.9515C18.3243 42.6265 18.4614 44.4418 18.6515 45.2888L16.7001 45.7268C16.4605 44.6597 16.3241 42.6473 16.2465 40.0099L18.2457 39.9515ZM18.6526 45.2936C19.425 48.8168 20.796 51.9123 22.8421 54.7467L21.2204 55.9173C19.0087 52.8533 17.5281 49.5035 16.699 45.722L18.6526 45.2936ZM22.8439 54.7492C23.4877 55.647 24.5436 56.8104 25.6803 57.9017C26.8205 58.9962 27.9794 59.958 28.8129 60.4811L27.7496 62.1751C26.7472 61.5459 25.4745 60.4765 24.2953 59.3444C23.1126 58.2091 21.9615 56.9507 21.2186 55.9148L22.8439 54.7492ZM30.668 63.8488V65.4688H28.668V63.8488H30.668ZM26.4586 69.7531L23.7044 69.789L23.6782 67.7891L26.4325 67.7533L26.4586 69.7531ZM23.7044 69.789C20.7364 69.8283 19.2665 69.8527 18.3423 69.9274C17.4875 69.9965 17.1527 70.1022 16.4295 70.3432L15.7971 68.4458C16.5973 68.1791 17.1023 68.0211 18.1812 67.9339C19.1905 67.8523 20.7477 67.828 23.6782 67.7891L23.7044 69.789ZM16.4295 70.3432C12.7124 71.5823 9.65987 74.407 8.23084 77.9162L6.37853 77.1619C8.03545 73.093 11.5454 69.863 15.7971 68.4458L16.4295 70.3432ZM8.23157 77.9144C7.36184 80.0621 7.25 80.9636 7.25 89.5703H5.25C5.25 81.0676 5.33347 79.7426 6.3778 77.1637L8.23157 77.9144ZM7.25 89.5703V96.8036H5.25V89.5703H7.25ZM7.45727 97.2542C7.65413 97.4578 7.94577 97.479 8.178 97.2903L9.43919 98.8425C8.42142 99.6695 6.95525 99.6125 6.01929 98.6442L7.45727 97.2542ZM8.28561 97.0838L8.39462 89.1074L10.3944 89.1348L10.2854 97.1112L8.28561 97.0838ZM8.3946 89.1093C8.44327 84.982 8.47265 82.8041 8.54503 81.5162C8.62066 80.1706 8.74964 79.7009 9.00253 79.0112L10.8803 79.6997C10.7035 80.1819 10.6079 80.4544 10.5419 81.6284C10.4727 82.8599 10.4434 84.9789 10.3945 89.1329L8.3946 89.1093ZM9.00161 79.0137C10.2746 75.5131 13.0131 72.7746 16.5137 71.5016L17.1972 73.3812C14.2525 74.452 11.952 76.7525 10.8812 79.6972L9.00161 79.0137ZM16.5201 71.4993C17.8671 71.0199 18.4816 70.9911 24.2249 70.9141L24.2517 72.914C18.3543 72.9931 18.1485 73.0426 17.1908 73.3835L16.5201 71.4993ZM24.2288 70.9141L28.3136 70.8755L28.3325 72.8754L24.2477 72.914L24.2288 70.9141ZM32.4571 73.0079L35.7606 77.7273L34.1222 78.8742L30.8186 74.1548L32.4571 73.0079ZM35.7615 77.7285C37.0026 79.5071 38.1316 81.1347 38.9508 82.3231C39.3602 82.917 39.6932 83.4027 39.9243 83.7431C40.0395 83.9127 40.1313 84.0491 40.1951 84.1456C40.2265 84.193 40.2545 84.236 40.2762 84.2704C40.2861 84.2863 40.3006 84.3095 40.3147 84.3342C40.3208 84.3448 40.3351 84.37 40.3506 84.4017C40.3577 84.4164 40.3732 84.4488 40.3891 84.4912C40.3906 84.4951 40.4531 84.6456 40.4531 84.8437H38.4531C38.4531 85.0413 38.5154 85.1908 38.5164 85.1934C38.5318 85.2344 38.5465 85.2652 38.5527 85.2779C38.5662 85.3056 38.5775 85.3253 38.5797 85.3291C38.5861 85.3401 38.5888 85.3441 38.5832 85.3353C38.5739 85.3205 38.5559 85.2927 38.5269 85.2487C38.4699 85.1626 38.3837 85.0344 38.2697 84.8666C38.0424 84.5319 37.7126 84.0507 37.3041 83.4582C36.4875 82.2736 35.3607 80.6492 34.1213 78.873L35.7615 77.7285ZM40.4531 84.8437C40.4531 85.1037 40.3487 85.2942 40.3405 85.3105C40.31 85.3709 40.2787 85.4189 40.2604 85.446C40.2217 85.5032 40.1794 85.5569 40.1458 85.5981C40.0751 85.6847 39.9839 85.7876 39.8851 85.8955C39.6844 86.1144 39.4149 86.3938 39.1251 86.6837L37.7109 85.2695C37.9874 84.9929 38.2355 84.7352 38.4108 84.544C38.5 84.4467 38.5613 84.3764 38.5963 84.3336C38.6154 84.3101 38.6142 84.31 38.6034 84.326C38.599 84.3326 38.5783 84.363 38.555 84.4093C38.5432 84.4327 38.5228 84.4756 38.5036 84.5326C38.4875 84.5808 38.4531 84.6939 38.4531 84.8437H40.4531ZM39.1251 86.6837C38.4383 87.3704 38.032 88.0715 37.8493 88.7929C37.6666 89.5141 37.69 90.3239 37.9695 91.2556L36.0539 91.8303C35.6889 90.6136 35.6244 89.4312 35.9105 88.3018C36.1965 87.1726 36.8156 86.1647 37.7109 85.2695L39.1251 86.6837ZM37.969 91.254C38.0763 91.6092 38.3638 92.1281 38.757 92.6317C39.1578 93.1451 39.5556 93.4982 39.7992 93.6255L38.8727 95.3979C38.2569 95.0761 37.6489 94.4624 37.1805 93.8624C36.7046 93.2528 36.2597 92.5119 36.0544 91.832L37.969 91.254ZM39.8122 93.6324C39.9355 93.6992 40.129 93.8069 40.3025 93.972C40.5038 94.1636 40.6385 94.3909 40.7195 94.6486C40.7911 94.8761 40.8162 95.1137 40.8287 95.3304C40.8415 95.5534 40.8438 95.8218 40.8438 96.1328H38.8438C38.8438 95.8188 38.8411 95.6038 38.832 95.4454C38.8225 95.2806 38.8085 95.2387 38.8117 95.2488C38.8244 95.2893 38.8614 95.3615 38.9236 95.4207C38.9579 95.4534 38.9708 95.4512 38.8597 95.391L39.8122 93.6324ZM40.8438 96.1328C40.8438 96.7452 40.8643 96.9616 40.893 97.069C40.9001 97.0958 40.9033 97.0977 40.9041 97.0989C40.9118 97.1104 40.9374 97.1447 41.0225 97.2259L39.6416 98.6726C39.3574 98.4013 39.0947 98.0875 38.9605 97.5843C38.8525 97.1791 38.8438 96.6923 38.8438 96.1328H40.8438ZM41.054 97.2573C41.1678 97.376 41.1715 97.3686 41.1524 97.3575C41.1216 97.3397 41.1301 97.3584 41.2758 97.3794C41.6248 97.4298 42.2724 97.4375 43.75 97.4375V99.4375C42.3565 99.4375 41.5197 99.4354 40.9899 99.3589C40.6961 99.3164 40.4165 99.2423 40.1514 99.089C39.8978 98.9424 39.7209 98.7568 39.61 98.6411L41.054 97.2573ZM43.75 97.4375C45.2427 97.4375 45.8829 97.4347 46.2313 97.3861C46.3728 97.3663 46.3806 97.3484 46.3521 97.3648C46.3414 97.371 46.3508 97.3717 46.4804 97.2421L47.8946 98.6563C47.78 98.7709 47.599 98.9547 47.3497 99.0982C47.0826 99.2519 46.8035 99.3256 46.508 99.3669C45.9823 99.4403 45.148 99.4375 43.75 99.4375V97.4375ZM46.667 96.7833L46.6173 92.923L48.6171 92.8971L48.6668 96.7576L46.667 96.7833ZM46.6173 92.923C46.5876 90.6462 46.5726 89.5772 46.5055 88.9401C46.4743 88.6438 46.4355 88.4859 46.3935 88.3661C46.347 88.2337 46.2839 88.1086 46.1474 87.8507L47.915 86.9149C48.0422 87.155 48.1769 87.4084 48.2806 87.7038C48.3887 88.0119 48.4525 88.3313 48.4945 88.7308C48.5739 89.4853 48.5882 90.6817 48.6171 92.8971L46.6173 92.923ZM46.143 87.8422C45.9069 87.3857 45.3838 86.733 45.0467 86.4546L46.3205 84.9126C46.8818 85.3764 47.5697 86.2471 47.9195 86.9234L46.143 87.8422ZM45.0109 86.4235C44.7716 86.2059 44.5513 85.9813 44.3856 85.7885C44.3053 85.695 44.2207 85.5893 44.1516 85.4835C44.1187 85.4332 44.0705 85.3546 44.0299 85.259C44.0094 85.2109 43.9807 85.1352 43.9616 85.0404C43.9442 84.9543 43.9205 84.7849 43.9713 84.5817L45.9115 85.0668C45.9599 84.8733 45.9365 84.7161 45.922 84.6445C45.9058 84.5642 45.8827 84.5053 45.8703 84.4761C45.8565 84.4438 45.8443 84.421 45.838 84.4099C45.8313 84.3979 45.8267 84.3909 45.8258 84.3895C45.8245 84.3875 45.8296 84.3954 45.8443 84.4143C45.8584 84.4324 45.8776 84.456 45.9025 84.485C46.0053 84.6046 46.1659 84.7706 46.3563 84.9437L45.0109 86.4235ZM44.0129 84.4528C44.0366 84.3938 44.0613 84.3488 44.0667 84.3388C44.0767 84.3205 44.0859 84.3049 44.0921 84.2945C44.1047 84.2734 44.1178 84.2525 44.129 84.235C44.1521 84.1988 44.1817 84.1539 44.2152 84.1036C44.283 84.0019 44.3785 83.8612 44.497 83.6877C44.7346 83.3401 45.0723 82.8504 45.4838 82.2557C46.3072 81.0658 47.431 79.4486 48.6513 77.6913L50.294 78.8321C49.0729 80.5905 47.9506 82.2057 47.1285 83.3937C46.7173 83.988 46.3823 84.4737 46.1482 84.8163C46.0308 84.988 45.9405 85.1212 45.8792 85.2132C45.8481 85.2597 45.8272 85.2917 45.8148 85.3111C45.8082 85.3214 45.8074 85.323 45.8098 85.319C45.8108 85.3172 45.8158 85.3088 45.8227 85.2963C45.8249 85.2921 45.8475 85.2516 45.8699 85.1956L44.0129 84.4528ZM48.6535 77.6881L51.9318 73.0068L53.5701 74.1541L50.2918 78.8353L48.6535 77.6881ZM56.0274 70.875H58.2227V72.875H56.0274V70.875ZM58.2227 70.875H58.5V72.875H58.2227V70.875ZM63.5 75.875V84.668H61.5V75.875H63.5ZM63.5 84.668V96.8036H61.5V84.668H63.5ZM64.1339 97.4375H78.125V99.4375H64.1339V97.4375ZM78.125 97.4375H92.1161V99.4375H78.125V97.4375ZM92.75 96.8036V80.4688H94.75V96.8036H92.75ZM92.75 80.4688V64.1339H94.75V80.4688H92.75ZM92.1161 63.5H78.125V61.5H92.1161V63.5ZM78.125 63.5H64.1339V61.5H78.125V63.5ZM63.6802 63.7103C63.5651 63.8205 63.5659 63.8306 63.5742 63.8167C63.5908 63.7886 63.5753 63.7932 63.5563 63.9145C63.5081 64.2222 63.5 64.7898 63.5 66.1133H61.5C61.5 64.8782 61.5017 64.1078 61.5804 63.605C61.6249 63.3211 61.7021 63.0522 61.8543 62.7958C61.9981 62.5536 62.1771 62.3806 62.2964 62.2663L63.6802 63.7103ZM59.8633 69.75H58.5938V67.75H59.8633V69.75ZM58.5938 69.75H57.9102V67.75H58.5938V69.75ZM53.6875 65.5273V64.1552H55.6875V65.5273H53.6875ZM55.6523 60.4792C56.5293 59.8885 57.8136 58.7604 59.0561 57.518C60.299 56.2751 61.4212 54.9965 62.0013 54.1308L63.6628 55.2442C62.9733 56.273 61.742 57.6605 60.4703 58.9322C59.1981 60.2044 57.8066 61.4396 56.7695 62.138L55.6523 60.4792ZM62.0028 54.1286C63.749 51.5375 64.9321 48.7985 65.6671 45.6697L67.6141 46.1271C66.8258 49.4827 65.5479 52.4469 63.6613 55.2464L62.0028 54.1286ZM65.6662 45.6736C65.9341 44.513 66.0511 43.2369 66.1292 40.0536L68.1286 40.1017C68.0505 43.2855 67.9331 44.7448 67.615 46.1233L65.6662 45.6736ZM66.1292 40.0536L66.2015 36.9878L68.201 37.035L68.1286 40.1017L66.1292 40.0536ZM68.3008 34.9375C68.7176 34.9375 68.8645 34.9099 68.9283 34.8891C68.9468 34.8831 68.9818 34.8774 69.1171 34.7421L70.5313 36.1563C70.276 36.4117 69.979 36.6501 69.5483 36.7906C69.1628 36.9163 68.7433 36.9375 68.3008 36.9375V34.9375ZM69.1171 34.7421C69.3305 34.5287 69.3618 34.2621 69.1388 33.9813L70.705 32.7375C71.5366 33.7847 71.4898 35.1979 70.5313 36.1563L69.1171 34.7421ZM69.1356 33.9772C69.1365 33.9784 69.1267 33.9661 69.1005 33.939C69.0756 33.9133 69.0422 33.8806 68.9997 33.8414C68.9144 33.7627 68.8045 33.6687 68.6762 33.5659C68.4188 33.3595 68.1114 33.1369 67.8225 32.953L68.8963 31.2657C69.2519 31.492 69.6183 31.7577 69.9273 32.0054C70.2134 32.2348 70.5234 32.5064 70.7082 32.7416L69.1356 33.9772ZM66.1875 29.95V28.8086H68.1875V29.95H66.1875ZM66.1875 28.8086C66.1875 23.2196 64.837 18.7896 61.8509 14.4325L63.5007 13.3019C66.7255 18.0073 68.1875 22.8351 68.1875 28.8086H66.1875ZM61.8489 14.4295C60.5877 12.5748 58.0154 9.94568 56.1594 8.62789L57.3172 6.99712C59.3674 8.45276 62.1076 11.2533 63.5027 13.3049L61.8489 14.4295ZM56.1545 8.62437C54.496 7.4318 51.6945 5.99359 49.8177 5.3618L50.4558 3.46632C52.5243 4.16265 55.504 5.69319 57.3221 7.00062L56.1545 8.62437ZM49.8289 5.3655C48.5767 4.96037 46.7246 4.56008 44.3474 4.2122L44.637 2.23319C47.0645 2.58844 49.0406 3.0083 50.4446 3.46255L49.8289 5.3655ZM44.3342 4.21009C44.0493 4.16451 43.7306 4.08848 43.4567 3.9381C43.1814 3.78695 42.75 3.43416 42.75 2.8125H44.75C44.75 2.6264 44.684 2.46249 44.5945 2.34425C44.5155 2.23991 44.4369 2.19465 44.4192 2.18494C44.3989 2.17377 44.4034 2.17948 44.4491 2.19276C44.4924 2.20534 44.5579 2.22045 44.6502 2.23521L44.3342 4.21009ZM42.75 2.8125C42.75 2.89786 42.7687 2.95306 42.7753 2.97034C42.7823 2.98847 42.7842 2.98669 42.7703 2.96629C42.7409 2.92314 42.6793 2.85307 42.5843 2.77673C42.4911 2.70193 42.3906 2.64111 42.3018 2.60216C42.2062 2.5602 42.168 2.5625 42.1875 2.5625V0.5625C42.8322 0.5625 43.4405 0.899246 43.8366 1.2174C44.0517 1.39008 44.2599 1.60078 44.4227 1.83961C44.5745 2.06218 44.75 2.40215 44.75 2.8125H42.75ZM42.1875 2.5625C42.1565 2.5625 42.0998 2.57082 42.0295 2.60226C41.9605 2.6331 41.8951 2.67892 41.8428 2.73472L40.3837 1.36684C40.8538 0.86541 41.523 0.5625 42.1875 0.5625V2.5625ZM47.0876 5.76114C51.983 6.82625 56.831 9.84319 60.0192 13.8284L58.4574 15.0778C55.5519 11.4459 51.1029 8.68156 46.6624 7.71542L47.0876 5.76114ZM60.0203 13.8299C63.1423 17.7477 64.779 22.1309 65.0029 27.2414L63.0049 27.3289C62.7991 22.6347 61.3108 18.6586 58.4562 15.0763L60.0203 13.8299ZM65.0029 27.2397L65.0065 27.3188L63.0085 27.4097L63.0049 27.3306L65.0029 27.2397ZM61.4301 30.0529C58.7354 29.18 55.3643 28.4875 51.4403 28.0042L51.6847 26.0192C55.6904 26.5125 59.1943 27.2263 62.0465 28.1502L61.4301 30.0529ZM51.442 28.0044C49.495 27.7681 45.8654 27.6455 42.1875 27.6455C38.5096 27.6455 34.88 27.7681 32.933 28.0044L32.6916 26.0191C34.768 25.7671 38.5022 25.6455 42.1875 25.6455C45.8728 25.6455 49.6066 25.767 51.683 26.019L51.442 28.0044ZM32.933 28.0044C29.13 28.4677 25.6018 29.1989 22.8844 30.0731L22.2719 28.1691C25.1405 27.2464 28.7993 26.4932 32.6916 26.0191L32.933 28.0044ZM22.8823 30.0737L22.8307 30.0902L22.2223 28.185L22.2739 28.1685L22.8823 30.0737ZM19.3722 27.4339C19.5543 23.5287 20.3117 20.6268 22.0684 17.3586L23.83 18.3055C22.2273 21.2873 21.5395 23.8932 21.37 27.527L19.3722 27.4339ZM22.0655 17.364C25.3585 11.1461 31.4061 6.80217 38.4965 5.53894L38.848 7.5078C32.3446 8.66644 26.8291 12.643 23.833 18.3001L22.0655 17.364ZM38.4965 5.53894C39.5284 5.35429 41.1639 5.30367 42.7486 5.34556C44.3384 5.3876 45.9985 5.52624 47.0858 5.76076L46.6642 7.7158C45.7593 7.52064 44.2456 7.38584 42.6957 7.34486C41.1407 7.30375 39.6716 7.36042 38.848 7.5078L38.4965 5.53894ZM51.6803 29.1827C55.1824 29.5982 58.6504 30.3127 61.1538 31.1404L60.5259 33.0393C58.1856 32.2655 54.8566 31.5736 51.4447 31.1688L51.6803 29.1827ZM60.748 33.7265L52.4862 33.7734L52.4748 31.7735L60.7366 31.7265L60.748 33.7265ZM52.4839 33.7734C46.8176 33.793 37.5574 33.793 31.8911 33.7734L31.898 31.7734C37.5597 31.793 46.8153 31.793 52.477 31.7734L52.4839 33.7734ZM31.8889 33.7734L23.3242 33.7248L23.3356 31.7248L31.9002 31.7735L31.8889 33.7734ZM22.9374 31.2155C26.4453 30.093 30.9965 29.2616 35.6818 28.886L35.8416 30.8796C31.2691 31.2462 26.875 32.0554 23.547 33.1204L22.9374 31.2155ZM35.6859 28.8857C39.0866 28.6272 48.5065 28.8035 51.6803 29.1827L51.4447 31.1688C48.4076 30.8059 39.1165 30.6307 35.8375 30.8799L35.6859 28.8857ZM65.0625 39.1016C65.0625 44.3068 64.4129 47.3199 62.4141 51.2359L60.6328 50.3266C62.4621 46.7426 63.0625 44.0526 63.0625 39.1016H65.0625ZM62.4127 51.2387C57.2988 61.1801 45.4102 65.8898 34.7332 62.2151L35.3837 60.3238C45.1364 63.6803 55.9824 59.3668 60.6342 50.3238L62.4127 51.2387ZM34.7332 62.2151C28.1918 59.9665 22.8459 54.6204 20.5973 48.079L22.4887 47.4288C24.5369 53.3874 29.4251 58.2756 35.3837 60.3238L34.7332 62.2151ZM20.5973 48.079C19.6729 45.388 19.4902 44.0655 19.3715 39.9114L21.3707 39.8543C21.4864 43.9032 21.6553 45.0027 22.4887 47.4288L20.5973 48.079ZM24.201 34.9375H42.168V36.9375H24.201V34.9375ZM42.168 34.9375H60.8984V36.9375H42.168V34.9375ZM35.4356 63.6101C37.5045 64.212 40.2227 64.625 42.168 64.625V66.625C40.0117 66.625 37.1049 66.1787 34.8769 65.5305L35.4356 63.6101ZM42.168 64.625C44.7795 64.625 48.4667 63.9445 50.9506 62.9921L51.6666 64.8595C48.9551 65.8992 45.0252 66.625 42.168 66.625V64.625ZM50.9669 62.986C51.1556 62.9173 51.4738 62.8614 51.8123 63.0231C52.1243 63.1722 52.2754 63.4237 52.342 63.5641C52.4621 63.8177 52.4925 64.1107 52.508 64.3048C52.5445 64.7587 52.5426 65.5 52.5233 66.6188L50.5236 66.5843C50.5434 65.4375 50.5415 64.8018 50.5144 64.4648C50.4983 64.2633 50.481 64.3073 50.5346 64.4206C50.5679 64.4908 50.6811 64.6992 50.9499 64.8277C51.2453 64.9688 51.5153 64.9147 51.6503 64.8656L50.9669 62.986ZM52.5232 66.6227L52.5144 67.041L50.5148 66.9988L50.5237 66.5804L52.5232 66.6227ZM49.8475 71.3583L49.7828 71.3924L48.85 69.6232L48.9147 69.5891L49.8475 71.3583ZM49.7891 71.3891L49.7251 71.4233L48.7798 69.6609L48.8437 69.6265L49.7891 71.3891ZM44.6394 71.211L44.3969 71.0537L45.4859 69.3761L45.7284 69.5335L44.6394 71.211ZM44.3898 71.049C43.8016 70.66 43.2237 70.308 42.7703 70.0571C42.5419 69.9308 42.3581 69.8373 42.227 69.7783C42.1606 69.7485 42.1221 69.734 42.1067 69.7289C42.0649 69.715 42.1469 69.75 42.2852 69.75V67.75C42.4869 67.75 42.6616 67.8057 42.7384 67.8313C42.8414 67.8656 42.9471 67.9093 43.047 67.9542C43.2486 68.0448 43.4859 68.1673 43.7385 68.3071C44.247 68.5885 44.8703 68.9689 45.493 69.3807L44.3898 71.049ZM42.2852 69.75C42.4293 69.75 42.5166 69.7125 42.4712 69.7277C42.4556 69.7329 42.4171 69.7474 42.3509 69.7768C42.2204 69.8349 42.0364 69.927 41.8079 70.0511C41.3537 70.2978 40.7711 70.6451 40.1744 71.0335L39.0835 69.3572C39.7172 68.9447 40.3455 68.5694 40.8533 68.2936C41.1057 68.1565 41.3404 68.0374 41.5377 67.9496C41.6353 67.9061 41.738 67.864 41.8372 67.8308C41.9066 67.8076 42.0824 67.75 42.2852 67.75V69.75ZM40.1734 71.0341L39.8741 71.2284L38.7852 69.5508L39.0844 69.3565L40.1734 71.0341ZM34.9004 71.4989L34.6669 71.3812L35.5675 69.5954L35.801 69.7131L34.9004 71.4989ZM34.67 71.3827L34.5764 71.3359L35.4709 69.5471L35.5644 69.5938L34.67 71.3827ZM31.8125 66.8638V66.582H33.8125V66.8638H31.8125ZM31.8125 66.582C31.8125 65.3531 31.815 64.5768 31.8722 64.1401C31.8878 64.0217 31.9127 63.8796 31.9611 63.7386C32.0066 63.6062 32.1047 63.3783 32.3274 63.192C32.876 62.7332 33.4949 63.0196 33.5448 63.0402L32.7833 64.8895C32.7838 64.8897 32.7877 64.8913 32.7945 64.8938C32.8013 64.8962 32.8126 64.9001 32.8276 64.9044C32.8553 64.9125 32.9102 64.9263 32.9841 64.9315C33.1579 64.9436 33.4001 64.9022 33.6107 64.7261C33.7849 64.5804 33.8419 64.4195 33.8527 64.3882C33.8664 64.3482 33.863 64.3414 33.8553 64.3999C33.8197 64.6713 33.8125 65.2718 33.8125 66.582H31.8125ZM33.4803 63.0162C33.6474 63.0719 34.528 63.3589 35.4229 63.6064L34.8897 65.5341C33.9487 65.2738 33.0323 64.975 32.8478 64.9135L33.4803 63.0162ZM70.8151 67.3692C70.9899 67.9119 71.1803 68.3947 71.3481 68.7544C71.4324 68.9351 71.5053 69.0722 71.5616 69.165C71.6348 69.2859 71.6357 69.2573 71.5582 69.1927L70.2778 70.7292C70.0831 70.5669 69.9399 70.3479 69.8514 70.2021C69.746 70.0281 69.6394 69.8222 69.5357 69.6001C69.3276 69.1541 69.1078 68.592 68.9114 67.9823L70.8151 67.3692ZM71.5621 69.196C71.4538 69.1048 71.368 69.2041 72.3958 69.2551C73.3489 69.3024 75.0281 69.3125 78.125 69.3125V71.3125C75.05 71.3125 73.3113 71.303 72.2966 71.2527C71.3566 71.206 70.7532 71.1295 70.2738 70.7258L71.5621 69.196ZM78.125 69.3125C81.2219 69.3125 82.9011 69.3024 83.8542 69.2551C84.882 69.2041 84.7962 69.1048 84.6879 69.196L85.9762 70.7258C85.4968 71.1295 84.8934 71.206 83.9534 71.2527C82.9387 71.303 81.2 71.3125 78.125 71.3125V69.3125ZM84.6918 69.1927C84.6143 69.2573 84.6152 69.2859 84.6885 69.165C84.7447 69.0722 84.8176 68.9351 84.9019 68.7544C85.0697 68.3947 85.2601 67.9119 85.4349 67.3692L87.3386 67.9823C87.1422 68.592 86.9224 69.1541 86.7143 69.6001C86.6106 69.8222 86.504 70.0281 86.3986 70.2021C86.3101 70.3479 86.167 70.5669 85.9722 70.7292L84.6918 69.1927ZM85.4399 67.3539L85.5316 67.0844L87.4251 67.7282L87.3335 67.9977L85.4399 67.3539ZM91.625 67.4033V80.4688H89.625V67.4033H91.625ZM91.625 80.4688V91.3125H89.625V80.4688H91.625ZM86.625 96.3125H78.125V94.3125H86.625V96.3125ZM78.125 96.3125H69.625V94.3125H78.125V96.3125ZM64.625 91.3125V80.4688H66.625V91.3125H64.625ZM64.625 80.4688V67.4033H66.625V80.4688H64.625ZM70.7184 67.0844L70.8101 67.3539L68.9165 67.9977L68.8249 67.7282L70.7184 67.0844ZM82.4773 68.0898H78.125V66.0898H82.4773V68.0898ZM78.125 68.0898H73.7727V66.0898H78.125V68.0898ZM73.2464 64.625H78.125V66.625H73.2464V64.625ZM78.125 64.625H83.0036V66.625H78.125V64.625ZM45.0215 72.8164C46.0166 73.4698 46.4767 73.7537 46.7677 73.88C46.8873 73.9319 46.9354 73.937 46.953 73.9384C46.9796 73.9406 47.0291 73.941 47.1794 73.9159L47.5082 75.8887C47.3069 75.9223 47.0634 75.9544 46.7879 75.9316C46.5033 75.908 46.2402 75.8313 45.9715 75.7147C45.4862 75.5041 44.8623 75.1044 43.9238 74.4883L45.0215 72.8164ZM47.2158 73.9106C47.3715 73.8905 47.518 73.8736 47.6446 73.8654C47.743 73.859 47.938 73.8482 48.1354 73.8933C48.2352 73.9161 48.4493 73.9772 48.645 74.1615C48.8849 74.3875 48.9868 74.6927 48.9712 74.9786C48.9586 75.2107 48.8725 75.3823 48.8302 75.4585C48.7814 75.5467 48.7279 75.6177 48.691 75.6638L47.1293 74.4144C47.1287 74.4151 47.1238 74.4213 47.1163 74.432C47.109 74.4424 47.096 74.4619 47.0808 74.4893C47.0597 74.5274 46.9853 74.666 46.9742 74.87C46.9602 75.1279 47.0534 75.4099 47.2735 75.6172C47.4494 75.7829 47.6327 75.83 47.6898 75.843C47.8017 75.8686 47.8637 75.8554 47.7747 75.8612C47.7139 75.8651 47.6188 75.8751 47.4717 75.8941L47.2158 73.9106ZM48.7239 75.6203C48.63 75.7517 47.3243 77.603 45.8604 79.711L44.2177 78.5702C45.6835 76.4595 46.995 74.5998 47.0964 74.4578L48.7239 75.6203ZM45.8594 79.7126C45.1143 80.7811 44.4213 81.7544 43.9027 82.4631C43.6443 82.8162 43.4248 83.1098 43.262 83.3183C43.1821 83.4206 43.1071 83.5139 43.0438 83.5863C43.0145 83.62 42.972 83.6673 42.9241 83.7129C42.9022 83.7336 42.8567 83.7757 42.7955 83.819C42.7651 83.8405 42.7101 83.8772 42.6362 83.9119C42.5761 83.9401 42.4196 84.0078 42.207 84.0078V82.0078C41.9969 82.0078 41.8435 82.0747 41.7869 82.1012C41.7166 82.1342 41.6658 82.1683 41.6401 82.1865C41.5884 82.2231 41.5547 82.2552 41.5467 82.2627C41.5267 82.2817 41.521 82.2896 41.5367 82.2716C41.5637 82.2407 41.6122 82.1815 41.6855 82.0876C41.8292 81.9036 42.0344 81.6296 42.2887 81.282C42.7955 80.5893 43.4794 79.6291 44.2188 78.5687L45.8594 79.7126ZM42.207 84.0078C41.9669 84.0078 41.7943 83.9211 41.7432 83.8947C41.6711 83.8574 41.6182 83.8191 41.5907 83.7982C41.5343 83.7554 41.492 83.7142 41.4717 83.6941C41.4266 83.6493 41.3849 83.6017 41.354 83.5654C41.288 83.4879 41.2071 83.3862 41.1187 83.272C40.9393 83.0401 40.6969 82.7152 40.4162 82.3325C39.8532 81.5649 39.1197 80.5425 38.3928 79.5158C37.6659 78.489 36.9423 77.4534 36.3992 76.6591C36.1283 76.2628 35.8988 75.9215 35.7354 75.6697C35.6546 75.5452 35.5841 75.4334 35.5314 75.3442C35.5061 75.3014 35.4766 75.2498 35.4507 75.198C35.4383 75.1733 35.4183 75.1321 35.3992 75.0824C35.3952 75.0721 35.3281 74.9134 35.3281 74.707H37.3281C37.3281 74.5859 37.3054 74.4939 37.2962 74.4588C37.2846 74.4146 37.2723 74.3811 37.2654 74.3632C37.2517 74.3278 37.24 74.3046 37.2384 74.3015C37.2341 74.2929 37.2368 74.2989 37.2535 74.3271C37.2847 74.3799 37.3372 74.464 37.4132 74.5811C37.5634 74.8126 37.7822 75.1382 38.0502 75.5303C38.585 76.3125 39.3019 77.3386 40.0251 78.3602C40.7484 79.3818 41.4749 80.3943 42.0289 81.1496C42.3066 81.5283 42.537 81.8367 42.7004 82.0479C42.7835 82.1553 42.8415 82.2274 42.8765 82.2685C42.8961 82.2915 42.8954 82.2893 42.8811 82.2751C42.8763 82.2703 42.8468 82.2408 42.8007 82.2057C42.7783 82.1887 42.7298 82.1533 42.6615 82.118C42.6142 82.0935 42.4447 82.0078 42.207 82.0078V84.0078ZM35.3281 74.707C35.3281 74.414 35.4544 74.122 35.697 73.9205C35.9003 73.7515 36.113 73.7058 36.2194 73.6908C36.4301 73.6612 36.6071 73.7008 36.683 73.7198C36.8711 73.7668 37.0558 73.8524 37.2137 73.9472L36.1847 75.6622C36.1474 75.6398 36.1465 75.6472 36.1979 75.6601C36.2054 75.6619 36.3263 75.6955 36.4979 75.6713C36.5848 75.6591 36.7822 75.619 36.9751 75.4587C37.2074 75.2658 37.3281 74.9854 37.3281 74.707H35.3281ZM37.156 73.9151C37.2526 73.9647 37.2915 73.9688 37.3082 73.97C37.3283 73.9713 37.3951 73.9727 37.5495 73.9189C37.9028 73.7959 38.4559 73.4831 39.4862 72.7995L40.5919 74.4661C39.591 75.1302 38.8355 75.5889 38.2073 75.8076C37.871 75.9248 37.5289 75.9896 37.1724 75.9653C36.8125 75.9408 36.5072 75.8302 36.2424 75.6943L37.156 73.9151ZM39.491 72.7964C40.2052 72.3284 40.862 71.9117 41.2783 71.6572L42.3213 73.3638C41.9282 73.6039 41.2901 74.0087 40.5871 74.4693L39.491 72.7964ZM43.172 71.64C43.6073 71.9 44.2922 72.3343 45.0241 72.8181L43.9212 74.4866C43.2027 74.0116 42.5455 73.5954 42.1461 73.3568L43.172 71.64ZM44.5484 87.5681C44.8185 87.8486 45.09 88.1587 45.2539 88.5819C45.4135 88.9942 45.4336 89.4187 45.4336 89.8438H43.4336C43.4336 89.4485 43.4049 89.3456 43.3887 89.3039C43.3768 89.273 43.3455 89.2022 43.1078 88.9554L44.5484 87.5681ZM45.4336 89.8438C45.4336 90.2741 45.4148 90.7101 45.2421 91.1326C45.0672 91.5607 44.7761 91.8724 44.4962 92.1524L43.082 90.7382C43.3489 90.4713 43.3801 90.4022 43.3907 90.3761C43.4036 90.3446 43.4336 90.2533 43.4336 89.8438H45.4336ZM44.4962 92.1524C44.2162 92.4324 43.9044 92.7235 43.4764 92.8984C43.0538 93.071 42.6178 93.0898 42.1875 93.0898V91.0898C42.597 91.0898 42.6884 91.0598 42.7199 91.047C42.7459 91.0363 42.8151 91.0051 43.082 90.7382L44.4962 92.1524ZM42.1875 93.0898C41.7572 93.0898 41.3212 93.071 40.8986 92.8984C40.4706 92.7235 40.1588 92.4324 39.8788 92.1524L41.293 90.7382C41.5599 91.0051 41.6291 91.0363 41.6551 91.047C41.6867 91.0598 41.778 91.0898 42.1875 91.0898V93.0898ZM39.8788 92.1524C39.5991 91.8727 39.3092 91.5621 39.1343 91.1386C38.9605 90.7177 38.9414 90.286 38.9414 89.8633H40.9414C40.9414 90.2609 40.9712 90.3468 40.9829 90.3751C40.9935 90.4008 41.0259 90.471 41.293 90.7382L39.8788 92.1524ZM38.9414 89.8633C38.9414 88.481 39.637 87.3243 40.9024 86.7619L41.7147 88.5896C41.2223 88.8084 40.9414 89.2143 40.9414 89.8633H38.9414ZM40.9117 86.7579C41.5232 86.4935 42.2213 86.498 42.8206 86.635C43.4289 86.7742 44.0572 87.0766 44.5352 87.5546L43.121 88.9688C42.9545 88.8023 42.6844 88.6555 42.3747 88.5847C42.0561 88.5118 41.8166 88.5456 41.7055 88.5936L40.9117 86.7579ZM41.2783 71.6572C41.8562 71.304 42.5544 71.2709 43.172 71.64L42.1461 73.3568C42.147 73.3573 42.1574 73.3633 42.177 73.3688C42.1971 73.3744 42.2213 73.3779 42.2473 73.3774C42.3031 73.3764 42.33 73.3584 42.3213 73.3638L41.2783 71.6572ZM83.0036 64.625C84.0671 64.625 84.8116 65.6758 84.4591 66.6791L82.5722 66.0162C82.4677 66.3136 82.6884 66.625 83.0036 66.625V64.625ZM73.7727 68.0898C72.876 68.0898 72.0785 67.5198 71.7882 66.6713L73.6805 66.024C73.694 66.0634 73.7311 66.0898 73.7727 66.0898V68.0898ZM67.4548 64.6646C68.9402 64.7136 70.24 65.6773 70.7184 67.0844L68.8249 67.7282C68.6144 67.1091 68.0425 66.6851 67.3889 66.6635L67.4548 64.6646ZM64.625 67.4033C64.625 65.8549 65.9072 64.6141 67.4548 64.6646L67.3889 66.6635C66.9709 66.6499 66.625 66.9851 66.625 67.4033H64.625ZM69.625 96.3125C66.8636 96.3125 64.625 94.0739 64.625 91.3125H66.625C66.625 92.9694 67.9681 94.3125 69.625 94.3125V96.3125ZM91.625 91.3125C91.625 94.0739 89.3864 96.3125 86.625 96.3125V94.3125C88.2819 94.3125 89.625 92.9694 89.625 91.3125H91.625ZM85.5316 67.0844C86.01 65.6773 87.3098 64.7136 88.7952 64.6646L88.8611 66.6635C88.2075 66.6851 87.6356 67.1091 87.4251 67.7282L85.5316 67.0844ZM34.5764 71.3359C32.8825 70.489 31.8125 68.7577 31.8125 66.8638H33.8125C33.8125 68.0001 34.4545 69.0389 35.4709 69.5471L34.5764 71.3359ZM39.8741 71.2284C38.3823 72.1967 36.4885 72.2997 34.9004 71.4989L35.801 69.7131C36.7538 70.1936 37.8901 70.1318 38.7852 69.5508L39.8741 71.2284ZM49.7251 71.4233C48.118 72.2853 46.1691 72.204 44.6394 71.211L45.7284 69.5335C46.6462 70.1292 47.8155 70.1781 48.7798 69.6609L49.7251 71.4233ZM66.2015 36.9878C66.2284 35.8477 67.1604 34.9375 68.3008 34.9375V36.9375C68.2466 36.9375 68.2022 36.9808 68.201 37.035L66.2015 36.9878ZM88.7952 64.6646C90.3428 64.6141 91.625 65.8549 91.625 67.4033H89.625C89.625 66.9851 89.2791 66.6499 88.8611 66.6635L88.7952 64.6646ZM65.0065 27.3188C65.0932 29.226 63.2523 30.6354 61.4338 30.0541L62.0428 28.149C62.5343 28.3062 63.032 27.9252 63.0085 27.4097L65.0065 27.3188ZM60.8984 34.9375C63.1982 34.9375 65.0625 36.8018 65.0625 39.1016H63.0625C63.0625 37.9064 62.0936 36.9375 60.8984 36.9375V34.9375ZM57.9102 69.75C55.578 69.75 53.6875 67.8595 53.6875 65.5273H55.6875C55.6875 66.7549 56.6826 67.75 57.9102 67.75V69.75ZM19.3715 39.9125C19.2906 37.1891 21.4764 34.9375 24.201 34.9375V36.9375C22.6042 36.9375 21.3232 38.2571 21.3707 39.8531L19.3715 39.9125ZM63.5 66.1133C63.5 68.1218 61.8718 69.75 59.8633 69.75V67.75C60.7672 67.75 61.5 67.0172 61.5 66.1133H63.5ZM28.8166 60.4835C29.9694 61.2141 30.668 62.484 30.668 63.8488H28.668C28.668 63.1691 28.32 62.5366 27.7459 62.1728L28.8166 60.4835ZM64.1339 63.5C63.9738 63.5 63.8206 63.5653 63.7097 63.6808L62.2669 62.2957C62.7549 61.7874 63.4292 61.5 64.1339 61.5V63.5ZM92.5403 63.6808C92.4294 63.5653 92.2762 63.5 92.1161 63.5V61.5C92.8208 61.5 93.4951 61.7874 93.9831 62.2957L92.5403 63.6808ZM92.75 64.1339C92.75 63.9738 92.6847 63.8206 92.5692 63.7097L93.9543 62.2669C94.4626 62.7549 94.75 63.4292 94.75 64.1339H92.75ZM61.1446 31.1374C62.582 31.5974 62.2571 33.7179 60.748 33.7265L60.7366 31.7265C59.9697 31.7309 59.8046 32.8085 60.5351 33.0423L61.1446 31.1374ZM92.1161 97.4375C92.2762 97.4375 92.4294 97.3722 92.5403 97.2567L93.9831 98.6418C93.4951 99.1501 92.8208 99.4375 92.1161 99.4375V97.4375ZM7.25 96.8036C7.25 96.9637 7.3153 97.1169 7.43081 97.2278L6.04575 98.6706C5.53737 98.1826 5.25 97.5083 5.25 96.8036H7.25ZM53.6875 64.1552C53.6875 62.6769 54.4263 61.2965 55.6562 60.4765L56.7656 62.1406C56.0921 62.5897 55.6875 63.3456 55.6875 64.1552H53.6875ZM51.9318 73.0068C52.8676 71.6707 54.3962 70.875 56.0274 70.875V72.875C55.0487 72.875 54.1315 73.3524 53.5701 74.1541L51.9318 73.0068ZM30.668 65.4627C30.6821 67.8065 28.8022 69.7226 26.4586 69.7531L26.4325 67.7533C27.6771 67.737 28.6755 66.7195 28.668 65.4748L30.668 65.4627ZM46.4804 97.2421C46.6019 97.1206 46.6692 96.9552 46.667 96.7833L48.6668 96.7576C48.676 97.4687 48.3975 98.1534 47.8946 98.6563L46.4804 97.2421ZM28.3136 70.8755C29.9618 70.8599 31.5118 71.6576 32.4571 73.0079L30.8186 74.1548C30.2515 73.3446 29.3214 72.866 28.3325 72.8754L28.3136 70.8755ZM22.8307 30.0902C21.0659 30.6537 19.2813 29.2817 19.3723 27.4313L21.3699 27.5296C21.3475 27.9857 21.7873 28.3239 22.2223 28.185L22.8307 30.0902ZM58.5 70.875C61.2614 70.875 63.5 73.1136 63.5 75.875H61.5C61.5 74.2181 60.1569 72.875 58.5 72.875V70.875ZM52.5144 67.041C52.476 68.8578 51.455 70.5107 49.8475 71.3583L48.9147 69.5891C49.8792 69.0806 50.4918 68.0888 50.5148 66.9988L52.5144 67.041ZM8.18789 97.2824C8.24866 97.2343 8.28455 97.1613 8.28561 97.0838L10.2854 97.1112C10.2761 97.7902 9.96172 98.4289 9.4293 98.8505L8.18789 97.2824ZM63.5 96.8036C63.5 96.9637 63.5653 97.1169 63.6808 97.2278L62.2957 98.6706C61.7874 98.1826 61.5 97.5083 61.5 96.8036H63.5ZM63.7097 97.2567C63.8206 97.3722 63.9738 97.4375 64.1339 97.4375V99.4375C63.4292 99.4375 62.7549 99.1501 62.2669 98.6418L63.7097 97.2567ZM84.4618 66.6713C84.1715 67.5198 83.374 68.0898 82.4773 68.0898V66.0898C82.5189 66.0898 82.556 66.0634 82.5695 66.024L84.4618 66.6713ZM18.164 30.4038C18.1301 31.3703 17.6223 32.258 16.8064 32.7773L15.7327 31.0899C15.9926 30.9245 16.1544 30.6416 16.1652 30.3336L18.164 30.4038ZM67.8144 32.9478C66.7997 32.2883 66.1875 31.1602 66.1875 29.95H68.1875C68.1875 30.4832 68.4573 30.9803 68.9044 31.2709L67.8144 32.9478ZM92.5692 97.2278C92.6847 97.1169 92.75 96.9637 92.75 96.8036H94.75C94.75 97.5083 94.4626 98.1826 93.9543 98.6706L92.5692 97.2278ZM71.7909 66.6791C71.4384 65.6758 72.1829 64.625 73.2464 64.625V66.625C73.5616 66.625 73.7823 66.3136 73.6778 66.0162L71.7909 66.6791ZM23.3242 33.7248C21.8675 33.7165 21.5456 31.674 22.9293 31.2182L23.5551 33.1178C24.324 32.8645 24.1451 31.7294 23.3356 31.7248L23.3242 33.7248ZM16.0742 34.9375C17.2026 34.9375 18.1264 35.8349 18.159 36.9628L16.1599 37.0207C16.1585 36.9744 16.1206 36.9375 16.0742 36.9375V34.9375Z" fill="#273461"/>
</g>
<path d="M79.7832 79.7637L79.7843 79.7626C81.3606 78.1959 82.2904 77.2902 82.8981 76.7783C83.505 76.2671 83.8861 76.0625 84.3555 76.0625C85.4754 76.0625 86.4375 77.0325 86.4375 78.1641C86.4375 78.6485 86.2045 79.0466 85.6014 79.7379C84.9866 80.4427 83.8832 81.5603 81.9355 83.4982C81.6111 83.8238 81.3073 84.1301 81.0224 84.4173C80.1355 85.3115 79.4317 86.021 78.858 86.5548C78.1163 87.2448 77.5139 87.7196 76.942 87.8931C76.6344 87.9864 76.3341 87.9943 76.0344 87.9119C75.7455 87.8324 75.4853 87.6765 75.24 87.4876C74.8841 87.2135 74.4846 86.807 74.0127 86.3269C73.8607 86.1722 73.7012 86.0098 73.5332 85.8419C72.6795 84.9882 72.1509 84.4364 71.8385 84.026C71.5073 83.591 71.375 83.2576 71.375 82.8516C71.375 81.7475 72.3293 80.75 73.4375 80.75C74.1588 80.75 74.6914 81.1709 75.6583 82.0998C75.6581 82.0996 75.6585 82.1 75.6583 82.0998L76.5738 82.973L79.7832 79.7637Z" fill="#273461"/>
<path d="M75.6583 82.0998C74.6914 81.1709 74.1588 80.75 73.4375 80.75C72.3293 80.75 71.375 81.7475 71.375 82.8516C71.375 83.2576 71.5073 83.591 71.8385 84.026C72.1509 84.4364 72.6795 84.9882 73.5332 85.8419C73.7012 86.0098 73.8607 86.1722 74.0127 86.3269C74.4846 86.807 74.8841 87.2135 75.24 87.4876C75.4853 87.6765 75.7455 87.8324 76.0344 87.9119C76.3341 87.9943 76.6344 87.9864 76.942 87.8931C77.5139 87.7196 78.1163 87.2448 78.858 86.5548C79.4317 86.021 80.1355 85.3115 81.0224 84.4173C81.3073 84.1301 81.6111 83.8238 81.9355 83.4982C83.8832 81.5603 84.9866 80.4427 85.6014 79.7379C86.2045 79.0466 86.4375 78.6485 86.4375 78.1641C86.4375 77.0325 85.4754 76.0625 84.3555 76.0625C83.8861 76.0625 83.505 76.2671 82.8981 76.7783C82.2904 77.2902 81.3606 78.1959 79.7843 79.7626L79.7832 79.7637L76.5738 82.973L75.6583 82.0998ZM75.6583 82.0998C75.6585 82.1 75.6581 82.0996 75.6583 82.0998Z" stroke="#273461"/>
<path d="M42.3051 12.8098L35.8342 16.3394C35.3604 16.5978 35.3604 17.2781 35.8342 17.5365L42.3051 21.0661C42.5086 21.1771 42.7545 21.1771 42.958 21.0661L49.4289 17.5365C49.9027 17.2781 49.9027 16.5978 49.4289 16.3394L42.958 12.8098C42.7545 12.6988 42.5086 12.6988 42.3051 12.8098Z" stroke="#273461" stroke-width="3"/>
</svg>
