<svg width="100" height="100" viewBox="0 0 100 100" fill="none" xmlns="http://www.w3.org/2000/svg">
<path d="M34.4428 79.1618V82.1618H37.4428V79.1618H34.4428ZM64.5572 79.1618H61.5572V82.1618H64.5572V79.1618ZM37.4657 56.5958V71.9705H43.4657V56.5958H37.4657ZM40.4657 68.9705H37.9561V74.9705H40.4657V68.9705ZM37.9561 68.9705C36.2665 68.9705 34.7298 69.4829 33.5477 70.599C32.4292 71.6551 31.921 72.9781 31.6742 74.0646C31.4264 75.1553 31.3875 76.2513 31.3918 77.1117C31.394 77.5517 31.4084 77.9699 31.4206 78.3173C31.4336 78.6866 31.4428 78.9475 31.4428 79.1618H37.4428C37.4428 78.8182 37.4285 78.4359 37.4169 78.1068C37.4046 77.7558 37.3935 77.4204 37.3918 77.0815C37.3882 76.3843 37.4278 75.822 37.5251 75.3938C37.6233 74.9614 37.7268 74.9051 37.667 74.9615C37.5437 75.078 37.5127 74.9705 37.9561 74.9705V68.9705ZM34.4428 76.1618H31.9332V82.1618H34.4428V76.1618ZM31.9332 76.1618C29.8452 76.1618 27.9362 76.6484 26.4055 77.872C24.8852 79.0873 24.1103 80.7334 23.6976 82.3151C23.2923 83.8688 23.1788 85.5824 23.1462 87.2182C23.1144 88.817 23.1613 90.7091 23.1613 92.3766H29.1613C29.1613 90.4484 29.1141 88.8908 29.145 87.3376C29.1752 85.8215 29.2812 84.6809 29.5033 83.8298C29.718 83.0068 29.9783 82.6975 30.1519 82.5587C30.3152 82.4282 30.7588 82.1618 31.9332 82.1618V76.1618ZM26.1613 89.3766H20.146V95.3766H26.1613V89.3766ZM22.146 11.2715H49.5V5.27148H22.146V11.2715ZM22.146 5.27148H15.8874V11.2715H22.146V5.27148ZM19.146 8.27148C19.146 10.1412 19.1784 18.0463 19.2641 20.0248L25.2585 19.7652C25.1798 17.9489 25.146 10.2031 25.146 8.27148H19.146ZM22.2613 16.895C21.4969 16.895 20.7243 16.8664 19.9111 16.8356C19.1201 16.8057 18.2735 16.7728 17.4618 16.7749C15.9459 16.7789 13.9835 16.8871 12.316 17.7719C10.3174 18.8323 9.21004 20.7217 9.02808 23.1204C8.86481 25.2726 9.42478 27.9023 10.532 31.0559L16.1932 29.0683C15.1674 26.1465 14.9431 24.4675 15.0109 23.5742C15.0413 23.1729 15.1229 23.0527 15.1144 23.0665C15.0947 23.0989 15.0686 23.1036 15.1282 23.072C15.3886 22.9338 16.0358 22.7786 17.4775 22.7749C18.1446 22.7731 18.8638 22.8003 19.6839 22.8313C20.4818 22.8616 21.3656 22.895 22.2613 22.895V16.895ZM19.2641 20.0248C19.6046 27.8852 20.775 35.8852 24.0247 42.9681L29.4781 40.4661C26.6936 34.3971 25.5841 27.2826 25.2585 19.7652L19.2641 20.0248ZM24.0247 42.9681C27.0118 49.4788 31.7318 55.158 39.0039 59.2156L41.9274 53.976C35.8687 50.5955 31.9842 45.9283 29.4781 40.4661L24.0247 42.9681ZM10.532 31.0559C12.9172 37.8492 16.7899 41.382 20.3244 43.1341C22.052 43.9905 23.6289 44.3872 24.7983 44.5691C25.384 44.6602 25.8721 44.6981 26.2328 44.7123C26.4134 44.7195 26.5628 44.7207 26.6773 44.7196C26.7346 44.719 26.7833 44.7178 26.8229 44.7165C26.8427 44.7159 26.8603 44.7152 26.8755 44.7146C26.8831 44.7142 26.8902 44.7139 26.8966 44.7136C26.8999 44.7134 26.9029 44.7133 26.9059 44.7131C26.9073 44.713 26.9094 44.7129 26.9102 44.7129C26.9122 44.7128 26.9142 44.7127 26.7514 41.7171C26.5885 38.7215 26.5905 38.7214 26.5924 38.7213C26.593 38.7213 26.5949 38.7212 26.596 38.7211C26.5984 38.721 26.6007 38.7209 26.6028 38.7208C26.607 38.7206 26.6108 38.7204 26.614 38.7203C26.6204 38.72 26.6248 38.7198 26.6272 38.7197C26.632 38.7196 26.629 38.7197 26.6184 38.7198C26.5973 38.72 26.5465 38.72 26.4693 38.717C26.3145 38.7109 26.0566 38.6926 25.7203 38.6404C25.046 38.5355 24.0755 38.2968 22.9892 37.7583C20.896 36.7207 18.0743 34.4259 16.1932 29.0683L10.532 31.0559ZM55.5343 56.5958V71.9705H61.5343V56.5958H55.5343ZM58.5343 74.9705H61.0439V68.9705H58.5343V74.9705ZM61.0439 74.9705C61.4873 74.9705 61.4563 75.078 61.333 74.9615C61.2732 74.9051 61.3767 74.9614 61.4749 75.3938C61.5722 75.822 61.6118 76.3843 61.6082 77.0815C61.6065 77.4204 61.5954 77.7558 61.5831 78.1068C61.5715 78.4359 61.5572 78.8182 61.5572 79.1618H67.5572C67.5572 78.9475 67.5664 78.6866 67.5794 78.3173C67.5916 77.9699 67.606 77.5517 67.6082 77.1117C67.6125 76.2513 67.5736 75.1553 67.3258 74.0646C67.079 72.9781 66.5708 71.6551 65.4523 70.599C64.2702 69.4829 62.7335 68.9705 61.0439 68.9705V74.9705ZM64.5572 82.1618H67.0668V76.1618H64.5572V82.1618ZM67.0668 82.1618C68.2412 82.1618 68.6848 82.4282 68.8481 82.5587C69.0217 82.6975 69.282 83.0068 69.4967 83.8298C69.7188 84.6809 69.8248 85.8215 69.855 87.3376C69.8859 88.8908 69.8387 90.4484 69.8387 92.3766H75.8387C75.8387 90.7091 75.8856 88.817 75.8538 87.2182C75.8212 85.5824 75.7077 83.8688 75.3024 82.3151C74.8897 80.7334 74.1148 79.0873 72.5945 77.872C71.0638 76.6484 69.1548 76.1618 67.0668 76.1618V82.1618ZM72.8387 95.3766H78.854V89.3766H72.8387V95.3766ZM76.854 5.27148H49.5V11.2715H76.854V5.27148ZM76.854 11.2715H83.1125V5.27148H76.854V11.2715ZM73.854 8.27148C73.854 10.2031 73.8202 17.9489 73.7415 19.7652L79.7359 20.0248C79.8216 18.0463 79.854 10.1412 79.854 8.27148H73.854ZM76.7387 22.895C77.6344 22.895 78.5182 22.8616 79.316 22.8313C80.1362 22.8003 80.8554 22.7731 81.5225 22.7749C82.9642 22.7786 83.6114 22.9338 83.8718 23.072C83.9314 23.1036 83.9053 23.0989 83.8856 23.0665C83.8771 23.0527 83.9587 23.1729 83.9891 23.5742C84.0569 24.4675 83.8326 26.1465 82.8068 29.0683L88.468 31.0559C89.5752 27.9023 90.1352 25.2726 89.9719 23.1204C89.79 20.7217 88.6826 18.8323 86.684 17.7719C85.0165 16.8871 83.0541 16.7789 81.5382 16.7749C80.7265 16.7728 79.8799 16.8057 79.0889 16.8356C78.2757 16.8664 77.5031 16.895 76.7387 16.895V22.895ZM73.7415 19.7652C73.4159 27.2826 72.3064 34.3971 69.5219 40.4661L74.9753 42.9681C78.225 35.8852 79.3954 27.8852 79.7359 20.0248L73.7415 19.7652ZM69.5219 40.4661C67.0158 45.9283 63.1313 50.5955 57.0726 53.976L59.9961 59.2156C67.2682 55.158 71.9882 49.4788 74.9753 42.9681L69.5219 40.4661ZM82.8068 29.0683C80.9257 34.4259 78.104 36.7207 76.0108 37.7583C74.9245 38.2968 73.954 38.5355 73.2797 38.6404C72.9434 38.6926 72.6855 38.7109 72.5307 38.717C72.4535 38.72 72.4027 38.72 72.3816 38.7198C72.371 38.7197 72.368 38.7196 72.3728 38.7197C72.3752 38.7198 72.3796 38.72 72.386 38.7203C72.3892 38.7204 72.393 38.7206 72.3972 38.7208C72.3993 38.7209 72.4016 38.721 72.404 38.7211C72.4051 38.7212 72.407 38.7213 72.4076 38.7213C72.4095 38.7214 72.4115 38.7215 72.2486 41.7171C72.0858 44.7127 72.0878 44.7128 72.0898 44.7129C72.0906 44.7129 72.0927 44.713 72.0941 44.7131C72.0971 44.7133 72.1001 44.7134 72.1034 44.7136C72.1098 44.7139 72.1169 44.7142 72.1245 44.7146C72.1397 44.7152 72.1573 44.7159 72.1771 44.7165C72.2167 44.7178 72.2654 44.719 72.3227 44.7196C72.4372 44.7207 72.5866 44.7195 72.7672 44.7123C73.1279 44.6981 73.616 44.6602 74.2017 44.5691C75.3711 44.3872 76.948 43.9905 78.6756 43.1341C82.2101 41.382 86.0828 37.8492 88.468 31.0559L82.8068 29.0683ZM58.5343 68.9705H40.4657V74.9705H58.5343V68.9705ZM31.9332 82.1618H67.0668V76.1618H31.9332V82.1618ZM26.1613 95.3766H72.8387V89.3766H26.1613V95.3766ZM39.8034 59.5218C43.6006 60.3812 46.6848 60.8601 49.755 60.8651C52.843 60.87 55.7741 60.3956 59.2756 59.5028L57.7931 53.6888C54.5883 54.506 52.1846 54.869 49.7646 54.8651C47.3267 54.8612 44.7297 54.485 41.1279 53.6698L39.8034 59.5218Z" fill="#273461"/>
</svg>
