<svg width="100" height="100" viewBox="0 0 100 100" fill="none" xmlns="http://www.w3.org/2000/svg">
<path d="M23.3636 74.5456C34.0578 74.5456 42.7272 65.8762 42.7272 55.182C42.7272 44.4877 34.0578 35.8184 23.3636 35.8184C12.6694 35.8184 4 44.4877 4 55.182C4 65.8762 12.6694 74.5456 23.3636 74.5456Z" stroke="#273461" stroke-width="6"/>
<path d="M69.7637 41.7272C80.4579 41.7272 89.1273 33.0578 89.1273 22.3636C89.1273 11.6694 80.4579 3 69.7637 3C59.0695 3 50.4001 11.6694 50.4001 22.3636C50.4001 33.0578 59.0695 41.7272 69.7637 41.7272Z" stroke="#273461" stroke-width="6"/>
<path d="M76.7637 96.7272C87.4579 96.7272 96.1273 88.0578 96.1273 77.3636C96.1273 66.6694 87.4579 58 76.7637 58C66.0695 58 57.4001 66.6694 57.4001 77.3636C57.4001 88.0578 66.0695 96.7272 76.7637 96.7272Z" stroke="#273461" stroke-width="6"/>
<path d="M38.9 45L54.9 34M41.4 63L56.9 70.5" stroke="#273461" stroke-width="6"/>
</svg>
