<svg width="25" height="25" viewBox="0 0 25 25" fill="none" xmlns="http://www.w3.org/2000/svg">
<path d="M16.0416 10.2917L11.2604 5.51043C11.0652 5.31642 10.8012 5.20752 10.526 5.20752C10.2508 5.20752 9.98681 5.31642 9.79164 5.51043C9.69401 5.60726 9.61652 5.72247 9.56363 5.84941C9.51075 5.97635 9.48352 6.1125 9.48352 6.25001C9.48352 6.38752 9.51075 6.52368 9.56363 6.65061C9.61652 6.77755 9.69401 6.89276 9.79164 6.9896L14.5833 11.7604C14.6809 11.8573 14.7584 11.9725 14.8113 12.0994C14.8642 12.2263 14.8914 12.3625 14.8914 12.5C14.8914 12.6375 14.8642 12.7737 14.8113 12.9006C14.7584 13.0275 14.6809 13.1428 14.5833 13.2396L9.79164 18.0104C9.59549 18.2052 9.48475 18.4699 9.48377 18.7463C9.4828 19.0227 9.59167 19.2882 9.78644 19.4844C9.9812 19.6805 10.2459 19.7913 10.5223 19.7923C10.7988 19.7932 11.0642 19.6844 11.2604 19.4896L16.0416 14.7083C16.6269 14.1224 16.9556 13.3281 16.9556 12.5C16.9556 11.6719 16.6269 10.8776 16.0416 10.2917Z" fill="white"/>
</svg>
