<svg width="25" height="25" viewBox="0 0 25 25" fill="none" xmlns="http://www.w3.org/2000/svg">
<path d="M11.0417 13.2396C10.9441 13.1428 10.8666 13.0275 10.8137 12.9006C10.7608 12.7737 10.7336 12.6375 10.7336 12.5C10.7336 12.3625 10.7608 12.2263 10.8137 12.0994C10.8666 11.9725 10.9441 11.8573 11.0417 11.7604L15.823 6.9896C15.9206 6.89276 15.9981 6.77755 16.051 6.65061C16.1039 6.52368 16.1311 6.38752 16.1311 6.25001C16.1311 6.1125 16.1039 5.97635 16.051 5.84941C15.9981 5.72247 15.9206 5.60726 15.823 5.51043C15.6278 5.31642 15.3638 5.20752 15.0886 5.20752C14.8134 5.20752 14.5494 5.31642 14.3542 5.51043L9.57297 10.2917C8.98776 10.8776 8.65906 11.6719 8.65906 12.5C8.65906 13.3281 8.98776 14.1224 9.57297 14.7083L14.3542 19.4896C14.5482 19.682 14.8101 19.7905 15.0834 19.7917C15.2205 19.7925 15.3564 19.7662 15.4833 19.7144C15.6102 19.6625 15.7256 19.5861 15.823 19.4896C15.9206 19.3928 15.9981 19.2776 16.051 19.1506C16.1039 19.0237 16.1311 18.8875 16.1311 18.75C16.1311 18.6125 16.1039 18.4763 16.051 18.3494C15.9981 18.2225 15.9206 18.1073 15.823 18.0104L11.0417 13.2396Z" fill="white"/>
</svg>
