<svg width="24" height="23" viewBox="0 0 24 23" fill="none" xmlns="http://www.w3.org/2000/svg">
<g clip-path="url(#clip0_22_4786)">
<path d="M7.21264 22.8168C8.25071 22.8168 9.09224 21.9753 9.09224 20.9372C9.09224 19.8991 8.25071 19.0576 7.21264 19.0576C6.17456 19.0576 5.33304 19.8991 5.33304 20.9372C5.33304 21.9753 6.17456 22.8168 7.21264 22.8168Z" fill="#273461"/>
<path d="M16.6106 22.8168C17.6487 22.8168 18.4902 21.9753 18.4902 20.9372C18.4902 19.8991 17.6487 19.0576 16.6106 19.0576C15.5726 19.0576 14.731 19.8991 14.731 20.9372C14.731 21.9753 15.5726 22.8168 16.6106 22.8168Z" fill="#273461"/>
<path d="M22.2344 5.91744C21.5728 5.28485 20.6872 4.94075 19.7721 4.96072H5.94766L5.7005 3.02285C5.61075 2.26227 5.24505 1.56104 4.67273 1.05213C4.10041 0.543206 3.36126 0.261965 2.5954 0.261719L2.04373 0.261719C1.66986 0.261719 1.31129 0.41024 1.04692 0.67461C0.782555 0.93898 0.634033 1.29754 0.634033 1.67142C0.634033 2.04529 0.782555 2.40386 1.04692 2.66823C1.31129 2.9326 1.66986 3.08112 2.04373 3.08112H2.5954C2.67228 3.08194 2.74613 3.11121 2.80271 3.16327C2.85928 3.21534 2.89457 3.28651 2.90177 3.36306L4.31147 14.4142C4.40038 15.1753 4.76575 15.8774 5.33817 16.3869C5.9106 16.8964 6.65022 17.178 7.41657 17.1781H16.9292C18.0608 17.1775 19.1609 16.8055 20.0607 16.1193C20.9605 15.4331 21.6102 14.4705 21.9102 13.3794L23.0812 9.12121C23.2373 8.56011 23.2411 7.96756 23.0923 7.40449C22.9435 6.84141 22.6474 6.32813 22.2344 5.91744ZM19.1951 12.6323C19.0575 13.1279 18.7616 13.5648 18.3525 13.8765C17.9434 14.1882 17.4435 14.3576 16.9292 14.3587H7.41657C7.33973 14.3581 7.26587 14.3289 7.20941 14.2767C7.15294 14.2246 7.11791 14.1533 7.11114 14.0768L6.30761 7.78012H19.9131C19.9857 7.77958 20.0574 7.79586 20.1226 7.82768C20.1879 7.85951 20.2449 7.90602 20.2891 7.96356C20.3334 8.0211 20.3637 8.08811 20.3777 8.15934C20.3917 8.23056 20.389 8.30406 20.3698 8.37407L19.1951 12.6323Z" fill="#273461"/>
</g>
<defs>
<clipPath id="clip0_22_4786">
<rect width="22.5552" height="22.5552" fill="white" transform="translate(0.634033 0.261719)"/>
</clipPath>
</defs>
</svg>
