<svg width="23" height="23" viewBox="0 0 23 23" fill="none" xmlns="http://www.w3.org/2000/svg">
<g clip-path="url(#clip0_22_4799)">
<path d="M16.2368 2.00146C15.2729 2.01079 14.3245 2.24576 13.4677 2.68754C12.6109 3.12932 11.8695 3.76563 11.3029 4.5455C10.7362 3.76563 9.99483 3.12932 9.13803 2.68754C8.28123 2.24576 7.33287 2.01079 6.36893 2.00146C4.62256 2.0712 2.97486 2.8296 1.7861 4.11081C0.597343 5.39203 -0.0357419 7.09182 0.025275 8.83851C0.025275 13.1165 4.4179 17.6961 8.10756 20.7853C9.0035 21.5386 10.1365 21.9517 11.3071 21.9517C12.4777 21.9517 13.6107 21.5386 14.5067 20.7853C18.1926 17.6961 22.5889 13.1165 22.5889 8.83851C22.6499 7.09041 22.0157 5.38938 20.8251 4.10793C19.6345 2.82647 17.9847 2.06903 16.2368 2.00146ZM12.691 18.6247C12.3023 18.9519 11.8105 19.1314 11.3024 19.1314C10.7943 19.1314 10.3025 18.9519 9.91385 18.6247C5.42161 14.8579 2.84468 11.2914 2.84468 8.83851C2.78476 7.83971 3.12124 6.85758 3.78108 6.10537C4.44091 5.35316 5.37083 4.89158 6.36893 4.82087C7.36702 4.89158 8.29694 5.35316 8.95678 6.10537C9.61661 6.85758 9.9531 7.83971 9.89318 8.83851C9.89318 9.21239 10.0417 9.57095 10.3061 9.83532C10.5704 10.0997 10.929 10.2482 11.3029 10.2482C11.6768 10.2482 12.0353 10.0997 12.2997 9.83532C12.5641 9.57095 12.7126 9.21239 12.7126 8.83851C12.6527 7.83971 12.9891 6.85758 13.649 6.10537C14.3088 5.35316 15.2387 4.89158 16.2368 4.82087C17.2349 4.89158 18.1648 5.35316 18.8247 6.10537C19.4845 6.85758 19.821 7.83971 19.7611 8.83851C19.7611 11.2914 17.1841 14.8579 12.691 18.6247Z" fill="#4E3434"/>
</g>
<defs>
<clipPath id="clip0_22_4799">
<rect width="22.5552" height="22.5552" fill="white" transform="translate(0.0252686 0.261719)"/>
</clipPath>
</defs>
</svg>
