<svg width="23" height="23" viewBox="0 0 23 23" fill="none" xmlns="http://www.w3.org/2000/svg">
<g clip-path="url(#clip0_22_4803)">
<path d="M18.0834 1.20166H4.92617C2.33514 1.20166 0.227173 3.30963 0.227173 5.90066V17.1783C0.227173 19.7693 2.33514 21.8773 4.92617 21.8773H18.0834C20.6744 21.8773 22.7824 19.7693 22.7824 17.1783V5.90066C22.7824 3.30963 20.6744 1.20166 18.0834 1.20166ZM20.9028 17.1783C20.9028 18.7327 19.6378 19.9977 18.0834 19.9977H4.92617C3.37174 19.9977 2.10677 18.7327 2.10677 17.1783V5.90066C2.10677 4.34623 3.37174 3.08126 4.92617 3.08126H18.0834C19.6378 3.08126 20.9028 4.34623 20.9028 5.90066V17.1783ZM18.0834 6.84046C18.0834 7.35923 17.6623 7.78026 17.1436 7.78026H10.565C10.0462 7.78026 9.62517 7.35923 9.62517 6.84046C9.62517 6.32169 10.0462 5.90066 10.565 5.90066H17.1436C17.6623 5.90066 18.0834 6.32169 18.0834 6.84046ZM7.74557 6.84046C7.74557 7.61862 7.11403 8.25016 6.33587 8.25016C5.55772 8.25016 4.92617 7.61862 4.92617 6.84046C4.92617 6.06231 5.55772 5.43076 6.33587 5.43076C7.11403 5.43076 7.74557 6.06231 7.74557 6.84046ZM18.0834 11.5395C18.0834 12.0582 17.6623 12.4793 17.1436 12.4793H10.565C10.0462 12.4793 9.62517 12.0582 9.62517 11.5395C9.62517 11.0207 10.0462 10.5997 10.565 10.5997H17.1436C17.6623 10.5997 18.0834 11.0207 18.0834 11.5395ZM7.74557 11.5395C7.74557 12.3176 7.11403 12.9492 6.33587 12.9492C5.55772 12.9492 4.92617 12.3176 4.92617 11.5395C4.92617 10.7613 5.55772 10.1298 6.33587 10.1298C7.11403 10.1298 7.74557 10.7613 7.74557 11.5395ZM18.0834 16.2385C18.0834 16.7572 17.6623 17.1783 17.1436 17.1783H10.565C10.0462 17.1783 9.62517 16.7572 9.62517 16.2385C9.62517 15.7197 10.0462 15.2987 10.565 15.2987H17.1436C17.6623 15.2987 18.0834 15.7197 18.0834 16.2385ZM7.74557 16.2385C7.74557 17.0166 7.11403 17.6482 6.33587 17.6482C5.55772 17.6482 4.92617 17.0166 4.92617 16.2385C4.92617 15.4603 5.55772 14.8288 6.33587 14.8288C7.11403 14.8288 7.74557 15.4603 7.74557 16.2385Z" fill="#273461"/>
</g>
<defs>
<clipPath id="clip0_22_4803">
<rect width="22.5552" height="22.5552" fill="white" transform="translate(0.227173 0.261719)"/>
</clipPath>
</defs>
</svg>
