<svg width="37" height="37" viewBox="0 0 37 37" fill="none" xmlns="http://www.w3.org/2000/svg">
<g clip-path="url(#clip0_22_4759)">
<path d="M32.6793 22.0242C34.7554 22.0242 36.4384 20.3412 36.4384 18.265C36.4384 16.1889 34.7554 14.5059 32.6793 14.5059C30.6031 14.5059 28.9201 16.1889 28.9201 18.265C28.9201 20.3412 30.6031 22.0242 32.6793 22.0242Z" fill="white"/>
<path d="M18.3942 22.0242C20.4704 22.0242 22.1534 20.3412 22.1534 18.265C22.1534 16.1889 20.4704 14.5059 18.3942 14.5059C16.3181 14.5059 14.6351 16.1889 14.6351 18.265C14.6351 20.3412 16.3181 22.0242 18.3942 22.0242Z" fill="white"/>
<path d="M4.10928 22.0242C6.18541 22.0242 7.86845 20.3412 7.86845 18.265C7.86845 16.1889 6.18541 14.5059 4.10928 14.5059C2.03314 14.5059 0.350098 16.1889 0.350098 18.265C0.350098 20.3412 2.03314 22.0242 4.10928 22.0242Z" fill="white"/>
</g>
<defs>
<clipPath id="clip0_22_4759">
<rect width="36.0883" height="36.0883" fill="white" transform="translate(0.350098 0.220703)"/>
</clipPath>
</defs>
</svg>
