<svg width="22" height="22" viewBox="0 0 22 22" fill="none" xmlns="http://www.w3.org/2000/svg">
<g clip-path="url(#clip0_36_556)">
<path d="M16.4601 0.220215H12.8934V1.11188C12.8934 1.58485 12.7055 2.03845 12.3711 2.37289C12.0366 2.70733 11.5831 2.89521 11.1101 2.89521C10.6371 2.89521 10.1835 2.70733 9.84908 2.37289C9.51464 2.03845 9.32675 1.58485 9.32675 1.11188V0.220215H5.76008C5.05063 0.220215 4.37023 0.502044 3.86857 1.0037C3.36691 1.50536 3.08508 2.18576 3.08508 2.89521V21.6202H9.32675V20.7285C9.32675 20.2556 9.51464 19.802 9.84908 19.4675C10.1835 19.1331 10.6371 18.9452 11.1101 18.9452C11.5831 18.9452 12.0366 19.1331 12.3711 19.4675C12.7055 19.802 12.8934 20.2556 12.8934 20.7285V21.6202H19.1351V2.89521C19.1351 2.18576 18.8533 1.50536 18.3516 1.0037C17.8499 0.502044 17.1695 0.220215 16.4601 0.220215ZM14.5644 19.8369C14.3673 19.0705 13.921 18.3914 13.2956 17.9064C12.6703 17.4215 11.9014 17.1584 11.1101 17.1584C10.3187 17.1584 9.54988 17.4215 8.92452 17.9064C8.29916 18.3914 7.85282 19.0705 7.65577 19.8369H4.86842V15.3785H7.54342V13.5952H4.86842V2.89521C4.86842 2.65873 4.96236 2.43193 5.12958 2.26471C5.2968 2.09749 5.5236 2.00355 5.76008 2.00355H7.65577C7.85282 2.76996 8.29916 3.44907 8.92452 3.93398C9.54988 4.4189 10.3187 4.68207 11.1101 4.68207C11.9014 4.68207 12.6703 4.4189 13.2956 3.93398C13.921 3.44907 14.3673 2.76996 14.5644 2.00355H16.4601C16.6966 2.00355 16.9234 2.09749 17.0906 2.26471C17.2578 2.43193 17.3517 2.65873 17.3517 2.89521V13.5952H14.6767V15.3785H17.3517V19.8369H14.5644Z" fill="white"/>
<path d="M12.8934 13.5952H9.32678V15.3785H12.8934V13.5952Z" fill="white"/>
</g>
<defs>
<clipPath id="clip0_36_556">
<rect width="21.4" height="21.4" fill="white" transform="translate(0.410034 0.220215)"/>
</clipPath>
</defs>
</svg>
