<svg width="211" height="63" viewBox="0 0 211 63" fill="none" xmlns="http://www.w3.org/2000/svg">
<path d="M194.063 0.000202578H16.8006C16.1544 0.000202578 15.516 0.000202578 14.8716 0.00331916C14.3322 0.00643574 13.797 0.0154894 13.2524 0.0231094C12.0692 0.0354227 10.8888 0.127478 9.7214 0.298475C8.55567 0.473194 7.42646 0.80259 6.37196 1.27552C5.31875 1.75246 4.35639 2.37218 3.51982 3.11222C2.67885 3.85017 1.97784 4.70315 1.44374 5.63834C0.908161 6.57168 0.536792 7.57184 0.342454 8.60427C0.146269 9.6354 0.0407005 10.6784 0.0266951 11.724C0.0103432 12.2017 0.00861642 12.6811 0 13.1589V49.1776C0.00861642 49.6615 0.0103432 50.1302 0.0266951 50.6142C0.0407048 51.6597 0.146274 52.7027 0.342454 53.7338C0.536255 54.7668 0.907646 55.7675 1.44374 56.7012C1.97759 57.6334 2.6787 58.4829 3.51982 59.2168C4.35322 59.9601 5.3162 60.5802 6.37196 61.0535C7.42645 61.5277 8.55554 61.8591 9.7214 62.0365C10.889 62.2061 12.0693 62.2982 13.2524 62.312C13.797 62.3226 14.3322 62.3287 14.8716 62.3287C15.516 62.3318 16.1545 62.3318 16.8006 62.3318H194.063C194.696 62.3318 195.34 62.3318 195.973 62.3287C196.51 62.3287 197.061 62.3226 197.597 62.312C198.778 62.2989 199.956 62.2068 201.122 62.0365C202.291 61.8578 203.424 61.5266 204.484 61.0535C205.539 60.58 206.501 59.9598 207.333 59.2168C208.172 58.48 208.875 57.6311 209.415 56.7012C209.948 55.7669 210.315 54.7662 210.506 53.7338C210.703 52.7025 210.812 51.6598 210.833 50.6142C210.84 50.1302 210.84 49.6615 210.84 49.1776C210.854 48.6115 210.854 48.0485 210.854 47.4732V14.8603C210.854 14.2896 210.854 13.7235 210.84 13.1589C210.84 12.6811 210.84 12.2017 210.833 11.7239C210.812 10.6783 210.703 9.63548 210.506 8.60421C210.315 7.57237 209.947 6.57229 209.415 5.63828C208.328 3.76378 206.603 2.23795 204.484 1.27538C203.424 0.803606 202.291 0.474297 201.122 0.298335C199.957 0.126584 198.778 0.034497 197.597 0.0228913C197.061 0.0152868 196.51 0.00615524 195.973 0.00311658C195.34 0 194.696 0 194.063 0V0.000202578Z" fill="#A6A6A6"/>
<path d="M14.8799 60.9679C14.343 60.9679 13.8191 60.9618 13.2865 60.9512C12.1831 60.9385 11.0822 60.8535 9.99296 60.697C8.9773 60.5423 7.9934 60.2546 7.07371 59.8433C6.16245 59.4353 5.33131 58.9004 4.61212 58.2591C3.88253 57.6253 3.27511 56.8902 2.81393 56.0829C2.34768 55.2704 2.025 54.3995 1.85714 53.5005C1.67587 52.5346 1.57779 51.5578 1.56376 50.5787C1.55259 50.2501 1.53796 49.1559 1.53796 49.1559V13.1585C1.53796 13.1585 1.55354 12.0811 1.56385 11.7646C1.57729 10.787 1.67479 9.81179 1.85552 8.84733C2.02369 7.94589 2.34662 7.07246 2.81312 6.25729C3.2726 5.45059 3.87665 4.71494 4.60185 4.07888C5.32623 3.43677 6.16003 2.89914 7.07284 2.48558C7.99042 2.07557 8.97246 1.78984 9.98607 1.63796C11.0789 1.4799 12.1836 1.39444 13.2908 1.38231L14.8807 1.36328H195.964L197.573 1.38307C198.67 1.3946 199.765 1.4793 200.848 1.63643C201.871 1.79021 202.864 2.07794 203.792 2.49014C205.62 3.32359 207.108 4.64218 208.047 6.2611C208.506 7.07064 208.824 7.93694 208.99 8.83059C209.173 9.80297 209.275 10.7859 209.296 11.7714C209.301 12.2127 209.301 12.6867 209.301 13.1585C209.315 13.7429 209.315 14.2991 209.315 14.8598V47.4728C209.315 48.0389 209.315 48.5913 209.301 49.1482C209.301 49.655 209.301 50.1192 209.295 50.597C209.274 51.5649 209.173 52.5303 208.993 53.4853C208.829 54.3907 208.508 55.2684 208.042 56.0876C207.578 56.8861 206.974 57.6148 206.252 58.2469C205.533 58.8917 204.7 59.4297 203.787 59.8403C202.861 60.2548 201.87 60.5436 200.848 60.697C199.758 60.8544 198.657 60.9393 197.554 60.9512C197.038 60.9618 196.497 60.9679 195.973 60.9679L194.063 60.971L14.8799 60.9679Z" fill="black"/>
<path d="M43.6437 31.635C43.6626 30.3344 44.0533 29.0591 44.7793 27.9278C45.5053 26.7966 46.5431 25.8461 47.796 25.1649C47.0001 24.1595 45.95 23.3322 44.7292 22.7485C43.5084 22.1649 42.1505 21.841 40.7634 21.8026C37.8045 21.5279 34.936 23.3684 33.4282 23.3684C31.8912 23.3684 29.5697 21.8299 27.0698 21.8754C25.4528 21.9216 23.877 22.3374 22.4957 23.0823C21.1145 23.8273 19.975 24.876 19.1883 26.1262C15.7805 31.344 18.3224 39.0124 21.5868 43.2301C23.2201 45.2954 25.1289 47.6023 27.6265 47.5205C30.0705 47.4309 30.9834 46.1422 33.9336 46.1422C36.8564 46.1422 37.7128 47.5205 40.2611 47.4685C42.8837 47.4309 44.536 45.394 46.112 43.3092C47.2855 41.8376 48.1885 40.2112 48.7875 38.4902C47.2639 37.9203 45.9636 36.9663 45.0489 35.7473C44.1342 34.5282 43.6454 33.098 43.6437 31.635Z" fill="white"/>
<path d="M38.8309 19.0292C40.2609 17.5111 40.9654 15.5599 40.7948 13.5898C38.6101 13.7928 36.5921 14.7161 35.1429 16.176C34.4343 16.8892 33.8916 17.7189 33.5458 18.6176C33.2 19.5164 33.0579 20.4666 33.1276 21.414C34.2203 21.424 35.3013 21.2145 36.2893 20.8014C37.2772 20.3883 38.1462 19.7824 38.8309 19.0292Z" fill="white"/>
<path d="M74.5391 42.2914H66.1986L64.1957 47.5217H60.663L68.5629 28.1709H72.2333L80.1333 47.5217H76.5403L74.5391 42.2914ZM67.0624 39.8779H73.6736L70.4145 31.3895H70.3233L67.0624 39.8779Z" fill="white"/>
<path d="M97.1944 40.4698C97.1944 44.854 94.541 47.6708 90.5368 47.6708C89.5224 47.7177 88.5137 47.5111 87.626 47.0745C86.7383 46.638 86.0075 45.9892 85.5174 45.2025H85.4416V52.1904H82.167V33.4149H85.3367V35.7614H85.3969C85.9096 34.9784 86.6527 34.333 87.5472 33.8938C88.4416 33.4546 89.454 33.2381 90.4766 33.2673C94.5254 33.2673 97.1944 36.0977 97.1944 40.4698ZM93.8286 40.4698C93.8286 37.6134 92.1594 35.7356 89.6127 35.7356C87.1108 35.7356 85.4279 37.653 85.4279 40.4698C85.4279 43.3125 87.1108 45.2162 89.6127 45.2162C92.1594 45.2162 93.8286 43.352 93.8286 40.4698Z" fill="white"/>
<path d="M114.752 40.4698C114.752 44.854 112.099 47.6708 108.095 47.6708C107.081 47.7177 106.072 47.5111 105.184 47.0745C104.296 46.638 103.566 45.9892 103.075 45.2024H103V52.1904H99.7251V33.4149H102.895V35.7614H102.955C103.468 34.9784 104.211 34.333 105.105 33.8938C106 33.4546 107.012 33.2381 108.035 33.2673C112.084 33.2673 114.752 36.0977 114.752 40.4698ZM111.387 40.4698C111.387 37.6134 109.718 35.7356 107.171 35.7356C104.669 35.7356 102.986 37.653 102.986 40.4698C102.986 43.3124 104.669 45.2162 107.171 45.2162C109.718 45.2162 111.387 43.352 111.387 40.4698H111.387Z" fill="white"/>
<path d="M126.358 42.1307C126.6 44.0497 128.708 45.3097 131.589 45.3097C134.349 45.3097 136.334 44.0496 136.334 42.3194C136.334 40.8174 135.137 39.918 132.301 39.3017L129.465 38.6976C125.447 37.8393 123.582 36.1775 123.582 33.4809C123.582 30.1422 126.872 27.8489 131.544 27.8489C136.168 27.8489 139.337 30.1422 139.444 33.4809H136.138C135.94 31.5498 134.135 30.3842 131.497 30.3842C128.859 30.3842 127.054 31.5635 127.054 33.2801C127.054 34.6481 128.207 35.4532 131.028 36.0694L133.438 36.5929C137.928 37.5318 139.793 39.1267 139.793 41.9571C139.793 45.5774 136.532 47.8448 131.346 47.8448C126.493 47.8448 123.217 45.6307 123.005 42.1306L126.358 42.1307Z" fill="white"/>
<path d="M146.86 30.075V33.4137H149.894V35.707H146.86V43.4848C146.86 44.693 147.467 45.2561 148.801 45.2561C149.161 45.2506 149.521 45.2282 149.878 45.1891V47.4687C149.279 47.5678 148.669 47.6126 148.059 47.6026C144.83 47.6026 143.57 46.5298 143.57 43.7936V35.707H141.25V33.4137H143.57V30.075H146.86Z" fill="white"/>
<path d="M151.651 40.4694C151.651 36.0304 154.607 33.241 159.217 33.241C163.842 33.241 166.785 36.0303 166.785 40.4694C166.785 44.9205 163.858 47.6977 159.217 47.6977C154.577 47.6977 151.651 44.9205 151.651 40.4694ZM163.448 40.4694C163.448 37.4243 161.87 35.6271 159.217 35.6271C156.563 35.6271 154.987 37.438 154.987 40.4694C154.987 43.5266 156.563 45.3101 159.217 45.3101C161.87 45.3101 163.448 43.5266 163.448 40.4694H163.448Z" fill="white"/>
<path d="M169.485 33.4147H172.608V35.8161H172.684C172.895 35.0661 173.392 34.4033 174.09 33.9391C174.789 33.4749 175.647 33.2376 176.521 33.2671C176.898 33.2659 177.275 33.3022 177.643 33.3752V36.0839C177.166 35.9552 176.669 35.896 176.171 35.9089C175.696 35.8918 175.221 35.966 174.781 36.1263C174.341 36.2867 173.945 36.5293 173.621 36.8377C173.297 37.1461 173.052 37.5128 172.903 37.9128C172.754 38.3128 172.705 38.7365 172.759 39.1548V47.523H169.485L169.485 33.4147Z" fill="white"/>
<path d="M192.741 43.379C192.3 45.9401 189.48 47.6978 185.871 47.6978C181.231 47.6978 178.35 44.9479 178.35 40.5363C178.35 36.111 181.246 33.241 185.734 33.241C190.148 33.241 192.923 35.9223 192.923 40.2V41.1922H181.656V41.3672C181.604 41.8864 181.677 42.4095 181.871 42.9017C182.065 43.3938 182.376 43.8438 182.782 44.2218C183.188 44.5998 183.68 44.897 184.226 45.0938C184.771 45.2907 185.358 45.3825 185.947 45.3634C186.721 45.4275 187.498 45.269 188.161 44.9114C188.825 44.5539 189.341 44.0164 189.631 43.379L192.741 43.379ZM181.671 39.1682H189.647C189.676 38.7014 189.596 38.2342 189.412 37.796C189.227 37.3578 188.942 36.958 188.575 36.6218C188.208 36.2856 187.766 36.0201 187.277 35.8422C186.788 35.6642 186.262 35.5775 185.734 35.5875C185.201 35.5847 184.672 35.6753 184.179 35.8541C183.685 36.0329 183.237 36.2964 182.859 36.6293C182.481 36.9622 182.182 37.3579 181.978 37.7937C181.774 38.2295 181.67 38.6967 181.671 39.1683V39.1682Z" fill="white"/>
<path d="M66.6518 13.6058C67.3383 13.5622 68.0272 13.6539 68.6688 13.8743C69.3104 14.0947 69.8887 14.4383 70.3619 14.8802C70.8352 15.3222 71.1916 15.8516 71.4056 16.4301C71.6195 17.0087 71.6855 17.622 71.599 18.2258C71.599 21.1963 69.7836 22.9038 66.6518 22.9038H62.8541V13.6058H66.6518ZM64.4871 21.5889H66.4694C66.96 21.6148 67.4509 21.5437 67.9065 21.3807C68.362 21.2176 68.7707 20.9668 69.1029 20.6465C69.435 20.3262 69.6822 19.9444 69.8264 19.5289C69.9707 19.1134 70.0084 18.6748 69.9367 18.2448C70.0032 17.8165 69.9617 17.3806 69.8152 16.9681C69.6688 16.5557 69.421 16.177 69.0896 15.8593C68.7582 15.5415 68.3514 15.2925 67.8985 15.13C67.4455 14.9676 66.9575 14.8958 66.4694 14.9197H64.4871V21.5889Z" fill="white"/>
<path d="M73.444 19.392C73.3941 18.9308 73.4537 18.4656 73.6191 18.026C73.7844 17.5865 74.0518 17.1824 74.4041 16.8396C74.7565 16.4968 75.1859 16.2229 75.6649 16.0355C76.1439 15.848 76.6619 15.7512 77.1857 15.7512C77.7095 15.7512 78.2276 15.848 78.7066 16.0355C79.1856 16.2229 79.615 16.4968 79.9673 16.8396C80.3196 17.1824 80.5871 17.5865 80.7524 18.026C80.9178 18.4656 80.9774 18.9308 80.9275 19.392C80.9783 19.8536 80.9194 20.3195 80.7545 20.7597C80.5896 21.2 80.3223 21.6049 79.9699 21.9483C79.6175 22.2918 79.1878 22.5663 78.7083 22.7541C78.2288 22.9419 77.7102 23.039 77.1857 23.039C76.6613 23.039 76.1427 22.9419 75.6632 22.7541C75.1837 22.5663 74.7539 22.2918 74.4015 21.9483C74.0491 21.6049 73.7819 21.2 73.617 20.7597C73.4521 20.3195 73.3931 19.8536 73.444 19.392ZM79.3169 19.392C79.3169 17.871 78.5443 16.9815 77.1883 16.9815C75.8272 16.9815 75.0615 17.871 75.0615 19.392C75.0615 20.9252 75.8273 21.8078 77.1883 21.8078C78.5443 21.8078 79.3169 20.9191 79.3169 19.392H79.3169Z" fill="white"/>
<path d="M90.8747 22.9033H89.2504L87.6105 17.7354H87.4866L85.8536 22.9033H84.2447L82.0576 15.8865H83.6459L85.0672 21.2408H85.1842L86.8155 15.8865H88.3177L89.949 21.2408H90.0729L91.4873 15.8865H93.0532L90.8747 22.9033Z" fill="white"/>
<path d="M94.8927 15.8863H96.4001V17.0009H96.5171C96.7156 16.6006 97.0504 16.265 97.4748 16.0409C97.8993 15.8168 98.3922 15.7154 98.8849 15.7508C99.2709 15.7251 99.6586 15.7766 100.019 15.9014C100.38 16.0262 100.704 16.2212 100.967 16.4718C101.231 16.7225 101.428 17.0224 101.543 17.3493C101.658 17.6763 101.688 18.0219 101.631 18.3606V22.903H100.065V18.7084C100.065 17.5808 99.5112 17.02 98.3531 17.02C98.091 17.0092 97.8294 17.0486 97.5861 17.1356C97.3428 17.2226 97.1237 17.3551 96.9438 17.524C96.7638 17.6929 96.6273 17.8942 96.5435 18.1141C96.4598 18.3341 96.4308 18.5674 96.4586 18.7981V22.9031H94.8927L94.8927 15.8863Z" fill="white"/>
<path d="M104.126 13.1482H105.692V22.9042H104.126V13.1482Z" fill="white"/>
<path d="M107.868 19.3921C107.819 18.9309 107.878 18.4657 108.044 18.0261C108.209 17.5865 108.477 17.1824 108.829 16.8396C109.181 16.4968 109.611 16.2229 110.09 16.0355C110.569 15.848 111.087 15.7512 111.611 15.7512C112.135 15.7512 112.653 15.848 113.132 16.0355C113.611 16.2229 114.04 16.4968 114.392 16.8396C114.745 17.1824 115.012 17.5865 115.178 18.0261C115.343 18.4657 115.403 18.9309 115.353 19.3921C115.404 19.8537 115.345 20.3196 115.18 20.7599C115.015 21.2001 114.747 21.605 114.395 21.9485C114.043 22.2919 113.613 22.5664 113.133 22.7542C112.654 22.942 112.135 23.039 111.611 23.039C111.086 23.039 110.568 22.942 110.088 22.7542C109.609 22.5664 109.179 22.2919 108.826 21.9485C108.474 21.605 108.207 21.2001 108.042 20.7599C107.877 20.3196 107.818 19.8537 107.868 19.3921ZM113.741 19.3921C113.741 17.8711 112.969 16.9816 111.613 16.9816C110.252 16.9816 109.486 17.8711 109.486 19.3921C109.486 20.9253 110.252 21.8079 111.613 21.8079C112.969 21.8079 113.741 20.9192 113.741 19.3921H113.741Z" fill="white"/>
<path d="M117.001 20.9191C117.001 19.6561 118.065 18.9279 119.952 18.8244L122.102 18.7149V18.1092C122.102 17.3681 121.547 16.9496 120.477 16.9496C119.603 16.9496 118.997 17.2334 118.823 17.7295H117.308C117.468 16.5243 118.75 15.7512 120.549 15.7512C122.539 15.7512 123.661 16.627 123.661 18.1092V22.9035H122.153V21.9174H122.029C121.778 22.2711 121.425 22.5595 121.006 22.7531C120.587 22.9466 120.118 23.0384 119.646 23.0191C119.313 23.0498 118.976 23.0183 118.658 22.9269C118.339 22.8354 118.046 22.6859 117.797 22.4881C117.548 22.2902 117.348 22.0484 117.211 21.7781C117.074 21.5079 117.003 21.2153 117.001 20.9191ZM122.102 20.3195V19.7329L120.164 19.8425C119.071 19.9071 118.576 20.2359 118.576 20.8544C118.576 21.486 119.195 21.8535 120.047 21.8535C120.297 21.8758 120.549 21.8535 120.788 21.788C121.028 21.7224 121.25 21.6148 121.442 21.4717C121.634 21.3286 121.791 21.1528 121.904 20.9549C122.017 20.757 122.085 20.5409 122.102 20.3195Z" fill="white"/>
<path d="M125.719 19.3928C125.719 17.1756 127.008 15.771 129.013 15.771C129.508 15.7508 130.001 15.8558 130.431 16.0738C130.862 16.2918 131.214 16.6138 131.446 17.002H131.563V13.1482H133.129V22.9042H131.628V21.7956H131.504C131.255 22.1813 130.891 22.4992 130.451 22.715C130.012 22.9308 129.515 23.0362 129.013 23.0199C126.994 23.02 125.719 21.6153 125.719 19.3928ZM127.337 19.3928C127.337 20.8811 128.13 21.7766 129.457 21.7766C130.776 21.7766 131.592 20.8682 131.592 19.3989C131.592 17.9365 130.768 17.015 129.457 17.015C128.138 17.015 127.337 17.9167 127.337 19.3928H127.337Z" fill="white"/>
<path d="M139.607 19.392C139.557 18.9308 139.617 18.4656 139.782 18.026C139.948 17.5865 140.215 17.1824 140.567 16.8396C140.92 16.4968 141.349 16.2229 141.828 16.0355C142.307 15.848 142.825 15.7512 143.349 15.7512C143.873 15.7512 144.391 15.848 144.87 16.0355C145.349 16.2229 145.778 16.4968 146.131 16.8396C146.483 17.1824 146.75 17.5865 146.916 18.026C147.081 18.4656 147.141 18.9308 147.091 19.392C147.142 19.8536 147.083 20.3195 146.918 20.7597C146.753 21.2 146.486 21.6049 146.133 21.9483C145.781 22.2918 145.351 22.5663 144.871 22.7541C144.392 22.9419 143.873 23.039 143.349 23.039C142.825 23.039 142.306 22.9419 141.826 22.7541C141.347 22.5663 140.917 22.2918 140.565 21.9483C140.212 21.6049 139.945 21.2 139.78 20.7597C139.615 20.3195 139.556 19.8536 139.607 19.392ZM145.48 19.392C145.48 17.871 144.707 16.9815 143.352 16.9815C141.99 16.9815 141.225 17.871 141.225 19.392C141.225 20.9252 141.99 21.8078 143.352 21.8078C144.707 21.8078 145.48 20.9191 145.48 19.392Z" fill="white"/>
<path d="M149.192 15.8863H150.699V17.0009H150.816C151.015 16.6006 151.35 16.265 151.774 16.0409C152.199 15.8168 152.691 15.7154 153.184 15.7508C153.57 15.7251 153.958 15.7766 154.318 15.9014C154.679 16.0262 155.003 16.2212 155.267 16.4718C155.531 16.7225 155.727 17.0224 155.842 17.3493C155.957 17.6763 155.987 18.0219 155.93 18.3606V22.903H154.365V18.7084C154.365 17.5808 153.811 17.02 152.652 17.02C152.39 17.0092 152.129 17.0486 151.885 17.1356C151.642 17.2226 151.423 17.3551 151.243 17.524C151.063 17.6929 150.927 17.8942 150.843 18.1141C150.759 18.3341 150.73 18.5674 150.758 18.7981V22.9031H149.192V15.8863Z" fill="white"/>
<path d="M164.778 14.1399V15.9188H166.497V17.0853H164.778V20.6934C164.778 21.4284 165.12 21.7503 165.9 21.7503C166.099 21.7497 166.299 21.739 166.497 21.7183V22.8718C166.216 22.9163 165.931 22.9399 165.645 22.9425C163.904 22.9425 163.21 22.4008 163.21 21.0479V17.0852H161.951V15.9188H163.21V14.1399H164.778Z" fill="white"/>
<path d="M168.636 13.1482H170.188V17.015H170.312C170.52 16.6109 170.864 16.2734 171.297 16.0485C171.73 15.8235 172.231 15.7221 172.731 15.758C173.115 15.7396 173.499 15.7963 173.856 15.9241C174.212 16.0519 174.532 16.2478 174.793 16.4976C175.054 16.7475 175.25 17.0452 175.366 17.3695C175.482 17.6939 175.515 18.0368 175.464 18.3739V22.9043H173.896V18.7156C173.896 17.5948 173.306 17.0272 172.2 17.0272C171.931 17.0076 171.66 17.0404 171.407 17.123C171.153 17.2057 170.923 17.3363 170.733 17.5058C170.543 17.6752 170.397 17.8794 170.305 18.104C170.213 18.3286 170.178 18.5682 170.202 18.8061V22.9042H168.636L168.636 13.1482Z" fill="white"/>
<path d="M184.594 21.009C184.381 21.6503 183.92 22.2051 183.292 22.5762C182.663 22.9473 181.907 23.1111 181.156 23.0391C180.633 23.0513 180.114 22.9627 179.634 22.7796C179.153 22.5964 178.724 22.3231 178.375 21.9785C178.027 21.6339 177.767 21.2263 177.614 20.784C177.461 20.3418 177.419 19.8754 177.491 19.4173C177.421 18.9578 177.464 18.4904 177.616 18.0468C177.769 17.6032 178.027 17.1937 178.374 16.8461C178.721 16.4985 179.148 16.2208 179.627 16.032C180.106 15.8431 180.625 15.7474 181.149 15.7513C183.357 15.7513 184.689 17.0852 184.689 19.2887V19.7719H179.086V19.8495C179.061 20.107 179.098 20.3662 179.193 20.6104C179.289 20.8547 179.441 21.0786 179.64 21.2679C179.839 21.4571 180.08 21.6076 180.349 21.7095C180.617 21.8114 180.907 21.8625 181.199 21.8597C181.574 21.8994 181.953 21.8398 182.289 21.6883C182.625 21.5368 182.903 21.3004 183.087 21.009L184.594 21.009ZM179.086 18.7477H183.093C183.113 18.5122 183.077 18.2756 182.987 18.0533C182.897 17.8309 182.756 17.6275 182.572 17.4563C182.388 17.2851 182.166 17.1499 181.919 17.0592C181.673 16.9686 181.407 16.9245 181.14 16.93C180.87 16.9269 180.601 16.9719 180.35 17.0622C180.099 17.1525 179.871 17.2863 179.68 17.4557C179.488 17.6251 179.337 17.8267 179.235 18.0486C179.133 18.2705 179.082 18.5082 179.086 18.7477H179.086Z" fill="white"/>
</svg>
