<svg width="18" height="18" viewBox="0 0 18 18" fill="none" xmlns="http://www.w3.org/2000/svg">
<g id="world">
<path id="Shape" fill-rule="evenodd" clip-rule="evenodd" d="M9.55359 0.382576C9.52945 0.379928 9.50532 0.376964 9.48119 0.373999C9.40683 0.364864 9.33234 0.355713 9.25677 0.355713C9.24109 0.355713 9.2256 0.357754 9.21014 0.359791L9.21014 0.359791C9.19677 0.361553 9.18342 0.363311 9.17001 0.363741C9.1458 0.363311 9.12172 0.361548 9.09763 0.359783C9.06985 0.357749 9.04205 0.355713 9.01397 0.355713C4.10747 0.355713 0.115601 4.23451 0.115601 9.00133C0.115601 13.7688 4.10747 17.6469 9.01397 17.6469C9.04216 17.6469 9.07007 17.645 9.0979 17.643L9.09799 17.643C9.1219 17.6413 9.14576 17.6396 9.16969 17.6392C9.18325 17.6396 9.19668 17.6413 9.21009 17.643C9.2256 17.645 9.24109 17.6469 9.25677 17.6469C9.33631 17.6469 9.41465 17.6372 9.4929 17.6275C9.51313 17.6249 9.53335 17.6224 9.55359 17.6201C14.2087 17.3471 17.9123 13.5918 17.9123 9.00133C17.9123 4.41081 14.2087 0.655839 9.55359 0.382576ZM6.35064 1.89795C5.44936 2.90887 4.71715 4.36041 4.31514 6.07471C3.06491 5.94286 2.31046 5.7894 2.00633 5.71838C2.88984 3.94581 4.44749 2.576 6.35064 1.89795ZM1.58512 6.72583C1.35154 7.44403 1.22442 8.20855 1.22442 9.00148C1.22574 9.933 1.40527 10.8562 1.75387 11.7239C2.11013 11.6402 2.90399 11.48 4.19266 11.3441C4.05601 10.6003 3.97561 9.81756 3.97561 9.00148C3.9763 8.37813 4.02164 7.75558 4.11131 7.13835C2.60907 6.97624 1.79741 6.78141 1.58512 6.72583ZM2.23855 12.7216C2.64152 12.6382 3.36356 12.5119 4.43073 12.4036C4.85054 13.9128 5.53349 15.1884 6.3515 16.1048C4.61111 15.4861 3.15333 14.2872 2.23791 12.7216H2.23855ZM5.44462 12.3111C6.02015 14.4768 7.42419 16.0833 8.37758 16.4712V12.1978C7.42419 12.2089 6.27217 12.2515 5.44462 12.3111ZM8.37722 11.1218C7.42383 11.1335 6.12626 11.1811 5.2415 11.2477C5.11979 10.5345 5.08515 9.77985 5.08515 9.00143C5.08515 8.39624 5.09722 7.8071 5.17254 7.23804C6.07096 7.3072 7.42383 7.35691 8.37722 7.36927V11.1215V11.1218ZM5.32523 6.1703C6.17757 6.2336 7.42397 6.28054 8.37737 6.29196V6.29165V1.53101C7.42397 1.94723 5.85754 3.76343 5.32523 6.1703ZM15.9938 5.65923C15.8199 5.7111 15.1157 5.90192 13.7228 6.06217C13.4085 4.43803 12.8412 3.05412 12.1014 2.05493C13.7975 2.76912 15.1767 4.05485 15.9938 5.65892V5.65923ZM12.6956 6.16895C12.1735 3.73212 10.6023 1.89956 9.64891 1.51514V6.29246C10.6023 6.28103 11.857 6.23379 12.6956 6.16895ZM9.64891 7.36851C10.6023 7.35647 11.9387 7.30552 12.8259 7.23389C12.899 7.80388 12.9175 8.39394 12.9175 9.00068C12.9175 9.78002 12.8889 10.5359 12.7706 11.2501C11.897 11.1815 10.6023 11.1321 9.64891 11.121V7.36851ZM9.64891 12.1978V16.4872V16.4875C10.6023 16.1287 12.014 14.5083 12.5797 12.3135C11.7629 12.2524 10.6023 12.2089 9.64891 12.1978ZM12.1014 15.9478C12.7681 15.0474 13.2992 13.8389 13.6268 12.4194C14.7226 12.542 15.4128 12.6847 15.7608 12.7699C14.9229 14.1827 13.6401 15.2967 12.1014 15.9478ZM13.8907 7.12591C14.058 8.53279 14.0355 9.95485 13.824 11.3561L13.8243 11.3558C15.1769 11.5102 15.9463 11.696 16.2523 11.7828C16.6051 10.9207 16.8053 9.98359 16.8053 9.00077C16.8048 8.0293 16.6106 7.06712 16.2332 6.16748L16.4122 6.65843C16.362 6.67572 15.6037 6.92613 13.8907 7.12591Z" fill="white"/>
</g>
</svg>
